<svg width="24" height="24" viewBox="0 0 24 24" fill="none"
 viewBox="0 0 512.000000 512.000000">

<g transform="translate(0.000000,512.000000) scale(0.100000,-0.100000)"
fill="#000000" stroke="none">
<path d="M3135 4946 c-41 -18 -83 -69 -90 -109 -4 -18 -5 -118 -3 -224 3 -210
5 -218 72 -267 39 -29 133 -29 172 0 68 51 69 53 69 294 0 205 -1 220 -21 246
-11 15 -32 37 -46 47 -33 25 -113 32 -153 13z"/>
<path d="M2255 4666 c-16 -7 -40 -24 -52 -37 -12 -13 -247 -451 -524 -974
l-502 -950 -312 -315 c-287 -291 -315 -321 -353 -396 -23 -45 -48 -110 -57
-145 -17 -73 -19 -223 -4 -288 8 -34 7 -47 -4 -60 -30 -33 -76 -129 -98 -201
-30 -96 -32 -255 -5 -344 34 -114 83 -196 170 -281 129 -128 265 -185 441
-185 138 0 264 39 368 112 25 18 34 19 91 9 131 -23 273 -3 383 53 l50 25 199
-201 c109 -110 225 -220 258 -244 203 -152 486 -84 598 144 31 62 33 73 33
172 0 164 -8 177 -281 450 l-224 226 52 51 c46 46 171 115 1006 557 525 277
963 513 974 523 48 44 65 143 32 193 -34 51 -2070 2082 -2106 2101 -43 22 -90
24 -133 5z m970 -1276 c563 -563 856 -863 850 -869 -6 -6 -370 -201 -810 -434
l-800 -425 -484 483 -484 483 429 811 c236 446 431 811 434 811 3 0 392 -387
865 -860z m-1268 -2168 c-272 -273 -298 -292 -412 -300 -55 -3 -83 1 -130 18
-56 21 -79 42 -341 304 -259 259 -283 285 -300 336 -27 80 -23 173 10 245 22
48 68 100 268 302 l242 244 453 -453 453 -453 -243 -243z m-927 -406 c0 -5
-37 -6 -82 -4 -99 5 -164 34 -222 98 -64 71 -97 175 -81 257 l7 36 189 -189
c104 -104 189 -193 189 -198z m1590 -258 c0 -28 -6 -42 -26 -57 -54 -42 -62
-37 -288 189 l-211 209 55 56 55 55 207 -207 c195 -195 208 -210 208 -245z"/>
<path d="M4095 4466 c-16 -8 -114 -99 -217 -202 -201 -203 -209 -217 -193
-301 9 -49 69 -109 118 -118 85 -16 97 -9 309 203 167 167 198 203 203 235 25
132 -101 236 -220 183z"/>
<path d="M4255 3506 c-97 -43 -124 -171 -54 -251 45 -51 78 -57 301 -53 215 3
223 5 272 72 29 39 29 133 0 172 -50 67 -55 69 -282 71 -157 2 -214 0 -237
-11z"/>
</g>
</svg>
