<svg width="24" height="24" viewBox="0 0 24 24" fill="none"
 viewBox="0 0 512.000000 512.000000">

<g transform="translate(0.000000,512.000000) scale(0.100000,-0.100000)"
fill="#000000" stroke="none">
<path d="M1315 5108 c-49 -17 -92 -55 -114 -101 -18 -36 -21 -62 -21 -159 l0
-115 -158 -6 c-219 -9 -332 -35 -485 -113 -252 -128 -433 -357 -510 -648 l-22
-81 0 -1520 0 -1520 23 -89 c24 -97 91 -246 142 -321 46 -66 154 -179 222
-232 128 -98 307 -172 469 -193 59 -8 586 -10 1754 -8 l1670 3 77 22 c179 51
312 123 429 231 174 162 275 344 314 568 23 131 23 2948 0 3079 -36 204 -127
377 -280 530 -210 210 -435 294 -791 295 l-92 0 -3 129 c-4 125 -5 131 -34
172 -87 123 -268 113 -337 -20 -26 -49 -28 -62 -28 -167 l0 -114 -980 0 -980
0 0 114 c0 105 -2 118 -28 167 -45 87 -147 128 -237 97z m-135 -993 c0 -230 5
-262 53 -313 102 -110 297 -66 337 76 5 20 10 130 10 245 l0 207 980 0 980 0
0 -207 c0 -115 5 -225 10 -245 40 -142 235 -186 337 -76 48 51 53 83 53 314
l0 217 143 -6 c79 -3 168 -13 201 -22 159 -43 302 -162 376 -312 43 -90 60
-176 60 -320 l0 -123 -2160 0 -2160 0 0 123 c0 144 17 230 60 320 88 178 253
297 455 327 27 4 98 8 158 9 l107 1 0 -215z m3540 -2078 c0 -1082 -1 -1116
-20 -1192 -50 -194 -199 -353 -391 -416 l-74 -24 -1675 0 -1675 0 -74 24 c-89
29 -204 104 -261 169 -60 67 -107 157 -130 247 -19 76 -20 111 -20 1192 l0
1113 2160 0 2160 0 0 -1113z"/>
<path d="M1105 2541 c-68 -30 -125 -113 -125 -181 0 -68 57 -151 125 -181 35
-16 69 -19 273 -19 257 0 279 4 340 63 20 20 39 52 48 84 14 48 14 58 0 106
-9 32 -28 64 -48 84 -61 59 -83 63 -340 63 -204 0 -238 -3 -273 -19z"/>
<path d="M2272 2534 c-116 -57 -144 -204 -59 -301 60 -68 82 -73 347 -73 260
0 285 5 344 68 88 94 53 257 -69 313 -35 16 -68 19 -276 19 -233 0 -235 0
-287 -26z"/>
<path d="M3470 2544 c-166 -72 -165 -299 2 -368 30 -13 82 -16 270 -16 204 0
238 3 273 19 68 30 125 113 125 181 0 68 -57 151 -125 181 -35 16 -69 19 -275
18 -188 0 -242 -3 -270 -15z"/>
<path d="M1092 1354 c-116 -57 -144 -204 -59 -301 59 -68 83 -73 345 -73 188
0 240 3 270 16 136 56 170 227 65 326 -56 54 -82 58 -336 58 -231 0 -234 0
-285 -26z"/>
<path d="M2295 1367 c-71 -28 -116 -82 -130 -158 -15 -79 39 -174 120 -210 35
-16 69 -19 275 -19 266 0 290 6 348 75 83 101 47 250 -73 306 -35 16 -67 18
-275 18 -155 0 -245 -5 -265 -12z"/>
<path d="M3470 1364 c-166 -72 -165 -299 2 -368 30 -13 82 -16 270 -16 262 0
286 5 345 73 86 98 56 244 -61 302 -49 24 -55 25 -285 25 -188 -1 -243 -4
-271 -16z"/>
</g>
</svg>
