<svg width="16" height="16" viewBox="0 0 16 16" fill="none" xmlns="http://www.w3.org/2000/svg">
<path d="M6.1871 8C6.1871 8.46413 6.37148 8.90925 6.69967 9.23744C7.02785 9.56563 7.47297 9.75 7.9371 9.75C8.40123 9.75 8.84635 9.56563 9.17454 9.23744C9.50273 8.90925 9.6871 8.46413 9.6871 8C9.6871 7.53587 9.50273 7.09075 9.17454 6.76256C8.84635 6.43437 8.40123 6.25 7.9371 6.25C7.47297 6.25 7.02785 6.43437 6.69967 6.76256C6.37148 7.09075 6.1871 7.53587 6.1871 8ZM14.7215 7.59688C13.2402 4.47656 11.0012 2.90625 7.9996 2.90625C4.99648 2.90625 2.75898 4.47656 1.27773 7.59844C1.21831 7.72425 1.1875 7.86165 1.1875 8.00078C1.1875 8.13991 1.21831 8.27732 1.27773 8.40312C2.75898 11.5234 4.99804 13.0938 7.9996 13.0938C11.0027 13.0938 13.2402 11.5234 14.7215 8.40156C14.8418 8.14844 14.8418 7.85469 14.7215 7.59688ZM7.9371 10.75C6.41835 10.75 5.1871 9.51875 5.1871 8C5.1871 6.48125 6.41835 5.25 7.9371 5.25C9.45585 5.25 10.6871 6.48125 10.6871 8C10.6871 9.51875 9.45585 10.75 7.9371 10.75Z" fill="white"/>
</svg>
