<svg width="24" height="24" viewBox="0 0 24 24" fill="none"
 viewBox="0 0 512.000000 512.000000">
<g transform="translate(0.000000,512.000000) scale(0.100000,-0.100000)"
fill="#000000" stroke="none">
<path d="M2446 5108 c-68 -13 -181 -67 -243 -116 -66 -53 -139 -156 -171 -241
-21 -54 -26 -87 -29 -186 l-3 -120 -72 -31 c-205 -87 -372 -198 -524 -349
-253 -250 -402 -530 -471 -885 -14 -72 -18 -183 -23 -708 -5 -602 -6 -624 -24
-638 -11 -8 -31 -14 -45 -14 -123 -2 -284 -62 -383 -144 -208 -170 -268 -467
-143 -705 69 -130 180 -226 325 -279 l75 -27 550 -3 c414 -2 551 -6 557 -15 4
-7 8 -22 8 -35 0 -41 50 -175 90 -243 97 -164 247 -280 440 -340 99 -31 290
-33 390 -5 169 49 332 166 425 306 64 96 91 164 120 303 l5 27 523 0 c582 0
607 3 735 66 143 70 268 233 301 392 52 255 -75 515 -310 631 -78 39 -196 70
-270 71 -14 0 -34 6 -45 14 -18 14 -19 35 -24 623 -6 583 -7 612 -29 718 -58
278 -177 533 -349 746 -171 213 -446 418 -672 503 l-45 17 0 117 c0 143 -22
216 -96 321 -128 183 -350 272 -573 229z m209 -342 c82 -38 135 -115 135 -195
l0 -39 -157 5 c-87 3 -191 1 -230 -4 l-73 -9 0 43 c0 84 52 161 135 199 64 31
126 31 190 0z m220 -595 c488 -126 868 -533 982 -1051 13 -63 17 -175 22 -700
6 -625 6 -625 30 -683 15 -37 44 -81 82 -121 75 -80 144 -113 269 -127 107
-12 147 -27 202 -77 53 -48 78 -102 78 -173 0 -105 -80 -212 -179 -239 -27 -7
-613 -9 -1822 -8 l-1784 3 -40 22 c-141 76 -179 255 -79 372 52 60 113 88 223
100 151 17 260 82 326 195 53 91 55 114 55 729 0 637 5 703 65 883 158 476
556 817 1045 899 57 10 137 13 245 11 139 -4 176 -8 280 -35z m85 -3528 c0
-37 -52 -126 -105 -182 -165 -173 -425 -173 -590 0 -31 32 -67 82 -80 111 -45
96 -80 88 375 88 374 0 400 -1 400 -17z"/>
<path d="M4075 4495 c-81 -29 -126 -115 -105 -197 8 -28 31 -62 69 -102 232
-245 395 -534 476 -844 34 -128 50 -158 102 -189 105 -62 243 15 243 134 0
100 -80 343 -180 549 -83 171 -196 342 -325 492 -136 158 -192 189 -280 157z"/>
<path d="M899 4476 c-72 -49 -259 -280 -362 -446 -65 -106 -159 -307 -201
-429 -100 -288 -99 -381 5 -440 50 -29 112 -27 164 3 49 29 68 64 96 176 71
292 245 605 463 838 78 83 88 102 88 163 0 95 -64 159 -161 159 -43 0 -65 -6
-92 -24z"/>
</g>
</svg>
