<svg width="24" height="24" viewBox="0 0 24 24" fill="none" xmlns="http://www.w3.org/2000/svg">
<path fill-rule="evenodd" clip-rule="evenodd" d="M18 20H6C4.9 20 4 19.1 4 18V6C4 4.9 4.9 4 6 4H18C19.1 4 20 4.9 20 6V18C20 19.1 19.1 20 18 20Z" fill="#30354E"/>
<path d="M18 20.5H6C4.6 20.5 3.5 19.4 3.5 18V6C3.5 4.6 4.6 3.5 6 3.5H18C19.4 3.5 20.5 4.6 20.5 6V18C20.5 19.4 19.4 20.5 18 20.5ZM6 4.5C5.2 4.5 4.5 5.2 4.5 6V18C4.5 18.8 5.2 19.5 6 19.5H18C18.8 19.5 19.5 18.8 19.5 18V6C19.5 5.2 18.8 4.5 18 4.5H6Z" fill="#30354E"/>
<path d="M11.9993 16.8C11.5993 16.8 11.1992 16.4999 11.1992 15.9999V7.99994C11.1992 7.59994 11.4993 7.19995 11.9993 7.19995C12.4993 7.19995 12.7993 7.49994 12.7993 7.99994V15.9999C12.7993 16.3999 12.3993 16.8 11.9993 16.8Z" fill="white"/>
<path d="M15.9993 12.7999H7.99927C7.59927 12.7999 7.19922 12.4999 7.19922 11.9999C7.19922 11.4999 7.49927 11.2 7.99927 11.2H15.9993C16.3993 11.2 16.7993 11.4999 16.7993 11.9999C16.7993 12.4999 16.3993 12.7999 15.9993 12.7999Z" fill="white"/>
</svg>
