<svg width="20" height="20" viewBox="0 0 24 24" fill="none"
 viewBox="0 0 512.000000 512.000000">

<g transform="translate(0.000000,512.000000) scale(0.100000,-0.100000)"
fill="#000000" stroke="none">
<path d="M2519 3719 c-1350 -771 -2467 -1414 -2482 -1429 -40 -38 -46 -94 -15
-140 23 -35 33 -38 770 -285 l747 -250 281 -770 c155 -423 288 -780 296 -793
8 -12 30 -30 48 -39 46 -22 95 -11 133 30 17 17 209 257 428 532 219 275 403
501 409 503 6 1 267 -83 581 -188 313 -104 580 -190 593 -190 36 0 80 27 97
59 8 17 171 965 366 2137 388 2329 366 2160 295 2203 -18 12 -47 21 -63 21
-22 0 -724 -396 -2484 -1401z m1992 -964 c-244 -1458 -300 -1780 -312 -1779
-9 1 -379 122 -822 270 -504 168 -806 273 -803 280 5 14 2229 3014 2232 3011
1 -1 -132 -803 -295 -1782z m-1124 833 c-480 -469 -1078 -1055 -1330 -1301
-252 -247 -464 -447 -470 -444 -7 2 -274 91 -594 198 -321 107 -583 196 -583
199 0 5 3830 2198 3842 2199 4 1 -385 -383 -865 -851z m-235 -886 c-473 -637
-867 -1170 -875 -1183 -11 -17 -32 -158 -68 -461 -30 -241 -57 -432 -61 -424
-18 32 -379 1030 -376 1041 3 13 2231 2194 2236 2189 2 -1 -383 -524 -856
-1162z m-465 -1469 c112 -37 202 -71 201 -75 -6 -18 -503 -636 -506 -629 -1 4
18 175 43 379 25 204 45 375 45 381 0 6 3 11 7 11 4 0 99 -30 210 -67z"/>
</g>
</svg>
