<svg width="24" height="24" viewBox="0 0 24 24" fill="none"
 viewBox="0 0 512.000000 512.000000">

<g transform="translate(0.000000,512.000000) scale(0.100000,-0.100000)"
fill="#000000" stroke="none">
<path d="M2220 4679 c-373 -43 -736 -194 -1029 -429 -425 -341 -689 -822 -752
-1370 -16 -144 -6 -423 20 -565 53 -287 157 -545 312 -776 99 -148 229 -297
283 -326 65 -34 146 20 146 98 0 33 -8 48 -62 106 -176 195 -297 389 -381 613
-180 482 -148 1010 89 1470 91 176 178 295 329 445 154 154 271 240 455 334
591 300 1283 260 1832 -108 854 -571 1060 -1746 452 -2577 -29 -39 -82 -104
-119 -145 -71 -78 -99 -126 -89 -156 14 -44 29 -63 62 -79 70 -33 112 -2 278
201 122 149 263 411 328 610 336 1021 -172 2120 -1164 2520 -146 59 -345 110
-502 130 -131 16 -365 18 -488 4z"/>
<path d="M2230 4036 c-301 -54 -544 -180 -755 -391 -196 -196 -324 -431 -382
-705 -25 -120 -25 -430 0 -548 58 -264 180 -497 356 -679 47 -49 54 -53 97
-53 64 0 104 39 104 103 0 41 -6 51 -65 117 -521 581 -351 1484 345 1835 392
197 867 156 1220 -105 326 -243 510 -652 471 -1047 -26 -256 -131 -498 -294
-678 -69 -76 -80 -99 -73 -140 10 -51 50 -85 102 -85 37 0 51 6 85 37 42 38
144 165 191 239 76 119 149 307 185 474 24 117 24 389 0 513 -110 550 -517
970 -1067 1099 -111 26 -408 34 -520 14z"/>
<path d="M2352 3400 c-174 -24 -302 -88 -427 -214 -105 -105 -161 -205 -196
-345 -30 -120 -24 -292 15 -406 35 -102 95 -204 161 -272 46 -48 55 -53 94
-53 34 0 49 6 71 29 59 58 53 86 -42 210 -161 211 -139 504 51 691 107 106
218 150 377 150 152 0 278 -51 379 -154 99 -101 147 -221 148 -366 1 -136 -38
-241 -132 -358 -56 -69 -63 -103 -34 -152 30 -51 94 -65 149 -31 70 43 175
217 211 351 27 101 25 293 -6 390 -97 314 -348 511 -676 533 -44 3 -108 1
-143 -3z"/>
<path d="M2380 2867 c-76 -24 -140 -120 -140 -209 0 -45 44 -133 81 -159 l29
-20 0 -879 c0 -626 3 -886 11 -904 28 -60 122 -71 170 -20 l24 26 3 887 2 888
44 45 c155 162 -8 414 -224 345z"/>
</g>
</svg>
