<svg width="24" height="24" viewBox="0 0 24 24" fill="none"
 viewBox="0 0 512.000000 512.000000">

<g transform="translate(0.000000,512.000000) scale(0.100000,-0.100000)"
fill="#000000" stroke="none">
<path d="M2320 5109 c-272 -26 -691 -138 -763 -205 -77 -71 -80 -193 -5 -260
62 -57 122 -58 273 -5 249 88 458 123 730 123 270 1 482 -34 729 -118 207 -71
494 -231 661 -367 81 -67 242 -226 310 -308 207 -246 372 -574 448 -890 62
-252 78 -567 43 -814 -95 -665 -471 -1237 -1049 -1596 -81 -51 -117 -103 -117
-169 0 -83 71 -162 157 -176 52 -8 113 18 242 105 525 354 909 895 1060 1499
119 473 105 953 -41 1411 -178 556 -534 1026 -1028 1356 -128 86 -383 215
-534 270 -340 125 -757 179 -1116 144z"/>
<path d="M1107 4656 c-58 -21 -178 -117 -326 -261 -147 -143 -253 -269 -353
-421 -108 -161 -140 -228 -140 -283 0 -142 156 -225 272 -144 31 21 40 34 109
148 54 89 137 208 194 275 66 79 247 255 322 313 107 83 133 111 146 160 36
131 -99 258 -224 213z"/>
<path d="M2475 3921 c-16 -10 -38 -27 -48 -39 -45 -50 -46 -70 -47 -619 l0
-523 -517 0 c-326 0 -532 -4 -555 -10 -44 -13 -93 -52 -113 -91 -19 -36 -19
-122 0 -158 20 -39 69 -78 113 -91 23 -6 229 -10 555 -10 l517 0 0 -517 c0
-326 4 -532 10 -555 13 -44 52 -93 91 -113 15 -8 51 -15 79 -15 28 0 64 7 79
15 39 20 78 69 91 113 6 23 10 229 10 555 l0 517 518 0 c325 0 531 4 554 10
44 13 93 52 113 91 19 36 19 122 0 158 -20 39 -69 78 -113 91 -23 6 -229 10
-554 10 l-518 0 0 518 c0 325 -4 531 -10 554 -13 44 -52 93 -91 113 -40 21
-127 19 -164 -4z"/>
<path d="M155 3224 c-73 -38 -88 -67 -115 -215 -57 -325 -52 -648 16 -976 32
-158 57 -225 94 -257 68 -57 164 -58 226 -4 69 61 78 113 45 246 -76 297 -86
631 -31 940 23 127 18 169 -25 220 -49 59 -146 80 -210 46z"/>
<path d="M426 1556 c-81 -30 -122 -98 -114 -186 6 -56 75 -176 201 -347 153
-207 520 -545 656 -606 107 -47 240 39 241 155 0 78 -25 115 -134 194 -244
178 -471 426 -613 667 -68 116 -146 156 -237 123z"/>
<path d="M1600 509 c-116 -46 -137 -217 -37 -300 50 -41 356 -134 555 -169
381 -66 797 -44 1154 61 109 32 160 90 160 179 0 80 -51 147 -132 171 -34 10
-54 8 -162 -19 -176 -45 -265 -59 -431 -72 -290 -22 -596 21 -882 121 -112 39
-176 47 -225 28z"/>
</g>
</svg>
