<svg width="34" height="34" viewBox="0 0 24 24" fill="none"
 viewBox="0 0 512.000000 512.000000">

<g transform="translate(0.000000,512.000000) scale(0.100000,-0.100000)"
fill="#000000" stroke="none">
<path d="M1633 4416 c-311 -59 -578 -255 -717 -526 -82 -160 -116 -308 -116
-510 0 -100 -2 -112 -25 -146 -131 -193 -1 -480 226 -502 48 -4 49 -5 80 -65
56 -111 173 -241 281 -314 42 -28 43 -30 46 -90 l3 -61 -84 -51 c-47 -28 -115
-63 -153 -79 -249 -101 -425 -323 -473 -596 -6 -34 -11 -207 -11 -401 l0 -342
23 -21 24 -22 1714 2 1714 3 67 33 c115 56 186 163 196 291 6 91 -11 113 -96
119 l-61 4 -3 487 c-3 533 -1 513 -65 573 -62 60 -40 58 -780 58 -436 0 -691
-4 -715 -10 -72 -20 -138 -102 -138 -170 0 -16 -3 -30 -7 -30 -20 0 -137 54
-210 97 l-83 48 0 65 0 65 78 58 c108 79 219 214 262 316 10 26 18 31 46 31
96 0 214 83 264 185 48 98 36 242 -25 325 -23 32 -25 42 -25 156 0 208 -43
380 -134 535 -141 238 -361 402 -631 470 -104 27 -366 35 -472 15z m367 -136
c281 -45 514 -217 644 -477 51 -102 76 -201 83 -327 6 -103 5 -108 -13 -104
-17 3 -20 15 -24 116 -4 98 -8 116 -24 128 -29 21 -45 18 -160 -26 -488 -185
-1071 -233 -1405 -115 -58 20 -68 19 -96 -10 -17 -16 -25 -35 -25 -60 0 -29
-4 -35 -21 -35 -21 0 -22 3 -16 98 24 411 321 744 724 812 70 11 258 11 333 0z
m550 -1066 c0 -270 -9 -332 -70 -459 -172 -358 -596 -505 -955 -330 -156 76
-260 181 -336 340 -53 112 -69 202 -69 396 l0 161 27 -7 c328 -85 878 -41
1293 104 47 16 91 30 98 30 9 1 12 -52 12 -235z m-1555 -313 l8 -34 -43 24
c-121 67 -132 239 -21 315 l36 24 6 -147 c4 -82 10 -163 14 -182z m1766 283
c75 -86 61 -220 -30 -281 -51 -34 -60 -31 -50 20 4 23 8 102 9 175 l0 133 28
-15 c15 -8 34 -22 43 -32z m-931 -968 c136 0 204 9 285 40 12 5 15 -2 15 -30
0 -34 -12 -50 -141 -184 -78 -81 -146 -147 -153 -147 -6 0 -73 64 -148 143
-128 133 -138 146 -138 181 l0 38 68 -20 c53 -16 97 -20 212 -21z m2276 -110
c18 -14 19 -32 22 -490 l3 -476 -239 0 c-141 0 -251 -4 -269 -10 -29 -10 -53
-45 -53 -75 0 -37 -28 -45 -152 -45 -131 0 -158 9 -158 55 0 13 -9 33 -19 46
-19 24 -20 24 -275 27 l-256 3 0 471 c0 425 2 473 17 490 15 17 50 18 688 18
564 0 674 -2 691 -14z m-2507 -178 l131 -136 -110 -77 c-61 -43 -112 -75 -114
-74 -14 20 -146 363 -141 368 14 13 90 60 97 58 3 -1 65 -64 137 -139z m661
111 c27 -17 50 -34 50 -38 0 -8 -139 -353 -145 -359 -5 -5 -214 143 -215 152
0 6 246 270 257 275 2 1 25 -13 53 -30z m308 -527 l2 -372 -43 0 c-64 0 -103
-17 -117 -50 -17 -40 -3 -128 31 -200 l28 -60 -819 0 -820 0 0 293 c0 337 7
386 71 517 62 126 215 272 310 295 23 5 27 -3 114 -221 90 -226 106 -254 151
-254 12 0 97 52 189 116 91 63 172 113 178 111 7 -3 84 -55 171 -116 88 -61
169 -111 180 -111 46 0 62 28 156 260 l93 230 61 -33 61 -34 3 -371z m590
-558 c50 -71 89 -84 255 -84 102 0 147 4 175 15 44 19 79 50 98 88 l15 27 289
0 c276 0 290 -1 290 -19 0 -28 -41 -82 -89 -116 l-43 -30 -726 0 c-716 0 -728
0 -767 21 -39 20 -105 102 -105 130 0 12 49 14 288 14 l288 0 32 -46z"/>
<path d="M3694 1764 c-91 -97 -143 -144 -153 -141 -9 3 -91 40 -183 82 -127
60 -172 76 -192 71 -20 -5 -53 -47 -141 -179 -72 -108 -115 -181 -115 -198 0
-28 37 -69 62 -69 36 0 53 18 144 151 l95 138 42 -18 c23 -11 100 -46 171 -80
70 -34 138 -61 151 -61 22 0 71 47 268 258 73 78 87 98 87 126 0 40 -26 66
-67 66 -26 0 -50 -20 -169 -146z"/>
</g>
</svg>
