<svg width="24" height="24" viewBox="0 0 24 24" fill="none" xmlns="http://www.w3.org/2000/svg">
<path d="M14.1317 11.3395C14.5217 9.69954 13.0917 8.26954 11.4517 8.65954C10.6817 8.84954 10.0517 9.47954 9.86169 10.2495C9.47169 11.8895 10.9017 13.3195 12.5417 12.9295C13.3217 12.7395 13.9517 12.1095 14.1317 11.3395Z" fill="#E2B04C"/>
<path d="M6.02094 17.97C5.84094 17.97 5.65094 17.9 5.51094 17.77C3.57094 15.97 2.46094 13.43 2.46094 10.79C2.46094 5.53 6.74094 1.25 12.0009 1.25C17.2609 1.25 21.5409 5.53 21.5409 10.79C21.5409 13.45 20.4709 15.91 18.5309 17.74C18.2309 18.02 17.7509 18.01 17.4709 17.71C17.1909 17.41 17.2009 16.93 17.5009 16.65C19.1409 15.11 20.0409 13.04 20.0409 10.8C20.0409 6.37 16.4309 2.76 12.0009 2.76C7.57094 2.76 3.96094 6.37 3.96094 10.8C3.96094 13.06 4.87094 15.14 6.53094 16.68C6.83094 16.96 6.85094 17.44 6.57094 17.74C6.42094 17.89 6.22094 17.97 6.02094 17.97Z" fill="#E2B04C"/>
<path d="M16.0034 15.2996C15.8234 15.2996 15.6334 15.2296 15.4934 15.0996C15.1934 14.8196 15.1734 14.3396 15.4634 14.0396C16.2934 13.1596 16.7534 11.9996 16.7534 10.7996C16.7534 8.17957 14.6234 6.05957 12.0134 6.05957C9.40344 6.05957 7.27344 8.18957 7.27344 10.7996C7.27344 12.0096 7.73344 13.1596 8.56344 14.0396C8.84344 14.3396 8.83344 14.8196 8.53344 15.0996C8.23344 15.3896 7.75344 15.3696 7.47344 15.0696C6.38344 13.9096 5.77344 12.3896 5.77344 10.7996C5.77344 7.35957 8.57344 4.55957 12.0134 4.55957C15.4534 4.55957 18.2534 7.35957 18.2534 10.7996C18.2534 12.3896 17.6534 13.9096 16.5534 15.0696C16.4034 15.2196 16.2034 15.2996 16.0034 15.2996Z" fill="#E2B04C"/>
<path d="M10.3028 16.66L8.86281 18.45C7.72281 19.88 8.74282 22 10.5628 22H13.4328C15.2628 22 16.2828 19.88 15.1328 18.46L13.6928 16.67C12.8328 15.57 11.1728 15.57 10.3028 16.66Z" fill="#E2B04C"/>
</svg>
