<svg width="16" height="16" viewBox="0 0 16 16" fill="none" xmlns="http://www.w3.org/2000/svg">
<path d="M11.5198 7.46666C11.3932 7.46666 11.2665 7.41997 11.1665 7.31997C10.9732 7.12663 10.9732 6.80664 11.1665 6.6133L13.2932 4.48663L11.1665 2.35997C10.9732 2.16663 10.9732 1.84663 11.1665 1.6533C11.3598 1.45997 11.6798 1.45997 11.8731 1.6533L14.3532 4.13332C14.4465 4.22666 14.4998 4.3533 14.4998 4.48663C14.4998 4.61997 14.4465 4.74665 14.3532 4.83999L11.8731 7.31997C11.7731 7.4133 11.6465 7.46666 11.5198 7.46666Z" fill="#E2B04C"/>
<path d="M14 4.98669H2C1.72667 4.98669 1.5 4.76003 1.5 4.48669C1.5 4.21336 1.72667 3.98669 2 3.98669H14C14.2733 3.98669 14.5 4.21336 14.5 4.48669C14.5 4.76003 14.2733 4.98669 14 4.98669Z" fill="#E2B04C"/>
<path d="M4.47998 14.4999C4.35331 14.4999 4.22667 14.4533 4.12667 14.3533L1.64665 11.8733C1.55331 11.7799 1.5 11.6533 1.5 11.52C1.5 11.3866 1.55331 11.2599 1.64665 11.1666L4.12667 8.68663C4.32 8.49329 4.64 8.49329 4.83333 8.68663C5.02667 8.87996 5.02667 9.19996 4.83333 9.39329L2.70667 11.52L4.83333 13.6466C5.02667 13.8399 5.02667 14.16 4.83333 14.3533C4.74 14.4533 4.61331 14.4999 4.47998 14.4999Z" fill="#E2B04C"/>
<path d="M14 12.0133H2C1.72667 12.0133 1.5 11.7866 1.5 11.5133C1.5 11.24 1.72667 11.0133 2 11.0133H14C14.2733 11.0133 14.5 11.24 14.5 11.5133C14.5 11.7866 14.2733 12.0133 14 12.0133Z" fill="#E2B04C"/>
</svg>
