<svg width="16" height="16" viewBox="0 0 16 16" fill="none" xmlns="http://www.w3.org/2000/svg">
<path d="M14 15.1667H2C1.72667 15.1667 1.5 14.9401 1.5 14.6667C1.5 14.3934 1.72667 14.1667 2 14.1667H14C14.2733 14.1667 14.5 14.3934 14.5 14.6667C14.5 14.9401 14.2733 15.1667 14 15.1667Z" fill="#E2B04C"/>
<path d="M3.73333 5.58667H2.66667C2.3 5.58667 2 5.88667 2 6.25334V12C2 12.3667 2.3 12.6667 2.66667 12.6667H3.73333C4.1 12.6667 4.4 12.3667 4.4 12V6.25334C4.4 5.88 4.1 5.58667 3.73333 5.58667Z" fill="#E2B04C"/>
<path d="M8.53338 3.45996H7.46672C7.10005 3.45996 6.80005 3.75996 6.80005 4.12663V12C6.80005 12.3666 7.10005 12.6666 7.46672 12.6666H8.53338C8.90005 12.6666 9.20005 12.3666 9.20005 12V4.12663C9.20005 3.75996 8.90005 3.45996 8.53338 3.45996Z" fill="#E2B04C"/>
<path d="M13.3332 1.33325H12.2665C11.8999 1.33325 11.5999 1.63325 11.5999 1.99992V11.9999C11.5999 12.3666 11.8999 12.6666 12.2665 12.6666H13.3332C13.6999 12.6666 13.9999 12.3666 13.9999 11.9999V1.99992C13.9999 1.63325 13.6999 1.33325 13.3332 1.33325Z" fill="#E2B04C"/>
</svg>
