<svg width="24" height="24" viewBox="0 0 24 24" fill="none" xmlns="http://www.w3.org/2000/svg">
<path d="M18.5 12.6504V16.3504C18.5 19.4704 15.59 22.0004 12 22.0004C8.41 22.0004 5.5 19.4704 5.5 16.3504V12.6504C5.5 15.7704 8.41 18.0004 12 18.0004C15.59 18.0004 18.5 15.7704 18.5 12.6504Z" fill="#E2B04C"/>
<path opacity="0.4" d="M18.5 7.64941V12.6494C18.5 15.7694 15.59 17.9994 12 17.9994C8.41 17.9994 5.5 15.7694 5.5 12.6494V7.64941C5.5 8.55941 5.75 9.39941 6.19 10.1194C7.26 11.8794 9.46 12.9994 12 12.9994C14.54 12.9994 16.74 11.8794 17.81 10.1194C18.25 9.39941 18.5 8.55941 18.5 7.64941Z" fill="#E2B04C"/>
<path d="M18.5 7.64951C18.5 8.55951 18.25 9.39951 17.81 10.1195C16.74 11.8795 14.54 12.9995 12 12.9995C9.46 12.9995 7.26 11.8795 6.19 10.1195C5.75 9.39951 5.5 8.55951 5.5 7.64951C5.5 4.52951 8.41 1.99951 12 1.99951C13.8 1.99951 15.42 2.62951 16.6 3.64951C17.77 4.67951 18.5 6.08951 18.5 7.64951Z" fill="#E2B04C"/>
</svg>
