<svg width="24" height="24" viewBox="0 0 16 16" fill="none" xmlns="http://www.w3.org/2000/svg">
<path d="M10.7933 1.33331H5.20668C2.78001 1.33331 1.33334 2.77998 1.33334 5.20665V10.7866C1.33334 13.22 2.78001 14.6666 5.20668 14.6666H10.7867C13.2133 14.6666 14.66 13.22 14.66 10.7933V5.20665C14.6667 2.77998 13.22 1.33331 10.7933 1.33331ZM11.7933 9.36665C11.7667 9.42665 11.7333 9.47998 11.6867 9.52665L9.72001 11.4933C9.62001 11.5933 9.49334 11.64 9.36668 11.64C9.24001 11.64 9.11334 11.5933 9.01334 11.4933C8.82001 11.3 8.82001 10.98 9.01334 10.7866L10.1267 9.67331H4.66668C4.39334 9.67331 4.16668 9.44665 4.16668 9.17331C4.16668 8.89998 4.39334 8.67331 4.66668 8.67331H11.3333C11.4 8.67331 11.46 8.68665 11.5267 8.71331C11.6467 8.76665 11.7467 8.85998 11.8 8.98665C11.8467 9.10665 11.8467 9.23998 11.7933 9.36665ZM11.3333 7.32665H4.66668C4.60001 7.32665 4.54001 7.31331 4.47334 7.28665C4.35334 7.23331 4.25334 7.13998 4.20001 7.01331C4.14668 6.89331 4.14668 6.75331 4.20001 6.63331C4.23334 6.57331 4.26668 6.51998 4.31334 6.47331L6.28001 4.50665C6.47334 4.31331 6.79334 4.31331 6.98668 4.50665C7.18001 4.69998 7.18001 5.01998 6.98668 5.21331L5.87334 6.32665H11.3333C11.6067 6.32665 11.8333 6.55331 11.8333 6.82665C11.8333 7.09998 11.6067 7.32665 11.3333 7.32665Z" fill="#E2B04C"/>
</svg>
