<svg width="24" height="24" viewBox="0 0 24 24" fill="none" xmlns="http://www.w3.org/2000/svg">
<path d="M20.0476 6.81969L14.2876 2.78969C12.7176 1.68969 10.3076 1.74969 8.79762 2.91969L3.78762 6.82969C2.78762 7.60969 1.99762 9.20969 1.99762 10.4697V17.3697C1.99762 19.9197 4.06762 21.9997 6.61762 21.9997H17.3976C19.9476 21.9997 22.0176 19.9297 22.0176 17.3797V10.5997C22.0176 9.2497 21.1476 7.58969 20.0476 6.81969ZM12.7576 17.9997C12.7576 18.4097 12.4176 18.7497 12.0076 18.7497C11.5976 18.7497 11.2576 18.4097 11.2576 17.9997V14.9997C11.2576 14.5897 11.5976 14.2497 12.0076 14.2497C12.4176 14.2497 12.7576 14.5897 12.7576 14.9997V17.9997Z" fill="white"/>
</svg>
