<svg width="24" height="24" viewBox="0 0 24 24" fill="none" xmlns="http://www.w3.org/2000/svg">
<path width='0.2' d="M16.8033 2H14.2033C11.0033 2 9.0033 4 9.0033 7.2V11.25H15.2533C15.6633 11.25 16.0033 11.59 16.0033 12C16.0033 12.41 15.6633 12.75 15.2533 12.75H9.0033V16.8C9.0033 20 11.0033 22 14.2033 22H16.7933C19.9933 22 21.9933 20 21.9933 16.8V7.2C22.0033 4 20.0033 2 16.8033 2Z" fill="white"/>
<path width='0.2' d="M4.56287 11.2498L6.63288 9.17985C6.78288 9.02985 6.85288 8.83984 6.85288 8.64984C6.85288 8.45984 6.78288 8.25984 6.63288 8.11984C6.34288 7.82984 5.86287 7.82984 5.57287 8.11984L2.22287 11.4698C1.93287 11.7598 1.93287 12.2398 2.22287 12.5298L5.57287 15.8799C5.86287 16.1699 6.34288 16.1699 6.63288 15.8799C6.92288 15.5899 6.92288 15.1098 6.63288 14.8198L4.56287 12.7498H9.00288V11.2498H4.56287Z" fill="white"/>
</svg>
