<svg width="21" height="25" viewBox="0 0 21 25" fill="none" xmlns="http://www.w3.org/2000/svg">
<path d="M9.83301 24.9594C9.06312 24.8481 8.33582 24.537 7.72349 24.0573C7.47921 23.8983 7.27456 23.6856 7.12523 23.4354C6.97589 23.1851 6.88583 22.904 6.86195 22.6136C6.86195 21.9982 7.43056 21.7102 7.9561 21.5884C9.61346 21.4588 11.2784 21.4588 12.9358 21.5884C13.4613 21.7114 14.0299 21.9933 14.0299 22.6136C14.0067 22.9036 13.9176 23.1846 13.7694 23.435C13.6212 23.6854 13.4177 23.8987 13.1745 24.0585C12.562 24.5368 11.8353 24.8473 11.0662 24.9594C10.8601 24.9861 10.6525 24.9996 10.4447 25C10.2401 25.0004 10.0358 24.9868 9.83301 24.9594ZM4.64042 19.7656C3.27775 19.643 2.00759 19.0241 1.07121 18.0265C0.375778 17.2109 -0.00182597 16.1716 0.00783189 15.0998C-0.0553363 14.0733 0.265327 13.06 0.90752 12.2567C1.35479 11.7942 1.70183 11.2445 1.92695 10.6418C2.15206 10.0391 2.2504 9.3964 2.21582 8.75396V8.22473C2.13175 6.50045 2.69493 4.80697 3.79489 3.47644C4.60843 2.51216 5.62185 1.73624 6.76496 1.20241C7.90807 0.668573 9.15356 0.389586 10.4152 0.384766H10.5259C11.8172 0.387745 13.0916 0.679273 14.2557 1.23804C15.4199 1.7968 16.4444 2.60867 17.2545 3.61429C18.2936 4.91904 18.819 6.55908 18.7314 8.22473V8.75396C18.7026 9.39625 18.8035 10.0378 19.0281 10.6402C19.2527 11.2427 19.5963 11.7937 20.0385 12.2604C20.6776 13.0635 20.9956 14.0754 20.9308 15.0998C20.9412 16.1719 20.564 17.2117 19.8687 18.0278C18.932 19.0249 17.662 19.6437 16.2994 19.7668C14.3659 19.9305 12.4299 20.0708 10.4693 20.0708C8.52214 20.0798 6.57602 19.9779 4.64042 19.7656Z" fill="#D2D3D4"/>
</svg>
