<svg width="24" height="24" viewBox="0 0 24 24" fill="none" xmlns="http://www.w3.org/2000/svg">
<path d="M6.67 14H4C2.9 14 2 14.9 2 16V21C2 21.55 2.45 22 3 22H6.67C7.22 22 7.67 21.55 7.67 21V15C7.67 14.45 7.22 14 6.67 14Z" fill="white"/>
<path d="M13.3263 10H10.6562C9.55625 10 8.65625 10.9 8.65625 12V21C8.65625 21.55 9.10625 22 9.65625 22H14.3263C14.8763 22 15.3263 21.55 15.3263 21V12C15.3263 10.9 14.4363 10 13.3263 10Z" fill="white"/>
<path d="M19.9981 17H17.3281C16.7781 17 16.3281 17.45 16.3281 18V21C16.3281 21.55 16.7781 22 17.3281 22H20.9981C21.5481 22 21.9981 21.55 21.9981 21V19C21.9981 17.9 21.0981 17 19.9981 17Z" fill="white"/>
<path d="M15.0095 4.85022C15.3195 4.54022 15.4395 4.17022 15.3395 3.85022C15.2395 3.53022 14.9295 3.30022 14.4895 3.23022L13.5295 3.07022C13.4895 3.07022 13.3995 3.00022 13.3795 2.96022L12.8495 1.90022C12.4495 1.09022 11.5395 1.09022 11.1395 1.90022L10.6095 2.96022C10.5995 3.00022 10.5095 3.07022 10.4695 3.07022L9.50945 3.23022C9.06945 3.30022 8.76945 3.53022 8.65945 3.85022C8.55945 4.17022 8.67945 4.54022 8.98945 4.85022L9.72945 5.60022C9.76945 5.63023 9.79945 5.75023 9.78945 5.79023L9.57945 6.71023C9.41945 7.40023 9.67945 7.71023 9.84945 7.83023C10.0195 7.95023 10.3895 8.11023 10.9995 7.75023L11.8995 7.22022C11.9395 7.19023 12.0695 7.19023 12.1095 7.22022L12.9995 7.75023C13.2795 7.92023 13.5095 7.97023 13.6895 7.97023C13.8995 7.97023 14.0495 7.89023 14.1395 7.83023C14.3095 7.71023 14.5695 7.40023 14.4095 6.71023L14.1995 5.79023C14.1895 5.74023 14.2195 5.63023 14.2595 5.60022L15.0095 4.85022Z" fill="white"/>
</svg>
