<svg width="25" height="24" viewBox="0 0 25 24" fill="none" xmlns="http://www.w3.org/2000/svg">
<path d="M21.0777 0.0783157C19.9397 0.492911 19.3008 1.62546 19.5604 2.76813C19.7001 3.38497 20.2292 4.05742 20.7633 4.29L21.0528 4.4164V5.23548C21.0528 5.91299 21.0378 6.06467 20.9729 6.1304C20.908 6.19613 20.7533 6.21129 20.0345 6.21129H19.166L19.0562 5.94332C18.7118 5.12425 17.9881 4.11304 17.2094 3.36474C15.7719 1.98444 13.97 1.19065 11.8636 1.0238C11.3845 0.988403 11.1449 1.06424 11.095 1.27154C11.08 1.33221 11.075 3.20801 11.08 5.43772C11.095 9.4421 11.095 9.49267 11.1998 9.62918C11.2547 9.70502 11.3645 9.81625 11.4394 9.87187C11.5741 9.97805 11.629 9.97805 15.4524 9.99321C17.5838 10.0033 19.4056 9.99321 19.4955 9.97805C19.785 9.92243 19.8548 9.80614 19.8548 9.35615C19.8548 9.00729 19.765 8.22865 19.6752 7.78878L19.6452 7.62699H20.369C20.9829 7.62699 21.1426 7.61182 21.3722 7.52081C21.7316 7.3843 22.096 7.0506 22.2757 6.68151C22.4204 6.39331 22.4254 6.37814 22.4404 5.40233L22.4604 4.4164L22.7399 4.29C22.8996 4.21921 23.1342 4.05236 23.2989 3.88552C24.4369 2.76307 24.1375 0.922674 22.7099 0.204717C22.3605 0.0328112 22.2956 0.017643 21.8314 0.00247478C21.4471 -0.00763702 21.2674 0.0125875 21.0777 0.0783157ZM22.2407 1.55468C22.675 1.86815 22.7149 2.51533 22.3206 2.87936C21.6318 3.52148 20.5786 2.70746 21.0029 1.8631C21.0927 1.68614 21.2724 1.51929 21.4521 1.44345C21.6168 1.37266 22.081 1.43839 22.2407 1.55468Z" fill="white"/>
<path d="M7.98085 3.03161C3.80806 3.49677 0.498771 6.83881 0.0395641 11.0606C-0.0353066 11.7533 -0.000366951 12.9162 0.114435 13.5937C0.403935 15.2318 1.15264 16.8043 2.23577 18.043L2.51529 18.3615L2.78982 18.0632C2.94455 17.9014 4.48689 16.1976 6.22389 14.2864L9.37345 10.8028V7.02083C9.37345 2.59173 9.43335 3.00633 8.78946 2.99116C8.57483 2.99116 8.21046 3.00633 7.98085 3.03161Z" fill="white"/>
<path d="M6.72326 15.3478C3.47886 18.9274 3.34908 19.0791 3.42894 19.1701C3.75338 19.5342 5.29572 20.3735 6.18419 20.6667C8.93444 21.5819 12.0541 21.0409 14.3451 19.2611L14.7444 18.9477L14.7694 20.151C14.7943 21.2633 14.8043 21.3746 14.9091 21.6021C15.0938 22.0066 15.3334 22.2695 15.7077 22.4515L16.0422 22.6183L17.864 22.6335L19.6859 22.6487L19.8057 22.8712C19.9754 23.1947 20.4496 23.6346 20.8339 23.8116C21.0885 23.9329 21.2532 23.9734 21.5776 23.9936C22.2864 24.0391 22.8055 23.852 23.3046 23.3717C24.6523 22.0723 23.9435 19.8173 22.0917 19.4937C21.0785 19.3218 19.9754 19.9842 19.646 20.9751L19.5711 21.2027L17.9589 21.2178C16.5164 21.2279 16.3417 21.2229 16.2568 21.147C16.1719 21.0661 16.167 20.9448 16.167 19.2257V17.3853L16.4215 17.0061C16.9107 16.2629 17.3799 15.186 17.6095 14.2607C17.8241 13.4012 17.9389 12.0613 17.8141 11.8237C17.7093 11.6265 17.5695 11.6215 13.7761 11.6215H10.1024L6.72326 15.3478ZM22.0418 20.9296C22.516 21.1066 22.7356 21.683 22.506 22.138C22.3513 22.4464 22.1416 22.5678 21.7573 22.5678C21.373 22.5678 21.1633 22.4464 21.0086 22.138C20.6642 21.4504 21.338 20.6617 22.0418 20.9296Z" fill="white"/>
</svg>
