<svg width="24" height="24" viewBox="0 0 16 16" fill="none" xmlns="http://www.w3.org/2000/svg">
<path stroke-width="0.1" d="M7.66927 14.5002C3.9026 14.5002 0.835938 11.4335 0.835938 7.66683C0.835938 3.90016 3.9026 0.833496 7.66927 0.833496C11.4359 0.833496 14.5026 3.90016 14.5026 7.66683C14.5026 11.4335 11.4359 14.5002 7.66927 14.5002ZM7.66927 1.8335C4.44927 1.8335 1.83594 4.4535 1.83594 7.66683C1.83594 10.8802 4.44927 13.5002 7.66927 13.5002C10.8893 13.5002 13.5026 10.8802 13.5026 7.66683C13.5026 4.4535 10.8893 1.8335 7.66927 1.8335Z" fill="#A6A7A9"/>
<path stroke-width="0.1" d="M14.6676 15.1666C14.5409 15.1666 14.4143 15.12 14.3143 15.02L12.9809 13.6866C12.7876 13.4933 12.7876 13.1733 12.9809 12.98C13.1743 12.7866 13.4943 12.7866 13.6876 12.98L15.0209 14.3133C15.2143 14.5066 15.2143 14.8266 15.0209 15.02C14.9209 15.12 14.7943 15.1666 14.6676 15.1666Z" fill="#A6A7A9"/>
</svg>
