<svg width="24" height="24" viewBox="0 0 24 24" fill="none" xmlns="http://www.w3.org/2000/svg">
<path d="M20.1054 9.22043C18.2954 9.22043 17.5554 7.94043 18.4554 6.37043C18.9754 5.46043 18.6654 4.30043 17.7554 3.78043L16.0254 2.79042C15.2354 2.32042 14.2154 2.60042 13.7454 3.39043L13.6354 3.58043C12.7354 5.15043 11.2554 5.15043 10.3454 3.58043L10.2354 3.39043C9.78537 2.60042 8.76537 2.32042 7.97537 2.79042L6.24537 3.78043C5.33537 4.30043 5.02537 5.47043 5.54537 6.38043C6.45537 7.94043 5.71537 9.22043 3.90537 9.22043C2.86537 9.22043 2.00537 10.0704 2.00537 11.1204V12.8804C2.00537 13.9204 2.85537 14.7804 3.90537 14.7804C5.71537 14.7804 6.45537 16.0604 5.54537 17.6304C5.02537 18.5404 5.33537 19.7004 6.24537 20.2204L7.97537 21.2104C8.76537 21.6804 9.78537 21.4004 10.2554 20.6104L10.3654 20.4204C11.2654 18.8504 12.7454 18.8504 13.6554 20.4204L13.7654 20.6104C14.2354 21.4004 15.2554 21.6804 16.0454 21.2104L17.7754 20.2204C18.6854 19.7004 18.9954 18.5304 18.4754 17.6304C17.5654 16.0604 18.3054 14.7804 20.1154 14.7804C21.1554 14.7804 22.0154 13.9304 22.0154 12.8804V11.1204C22.0054 10.0804 21.1554 9.22043 20.1054 9.22043ZM12.0054 15.2504C10.2154 15.2504 8.75537 13.7904 8.75537 12.0004C8.75537 10.2104 10.2154 8.75043 12.0054 8.75043C13.7954 8.75043 15.2554 10.2104 15.2554 12.0004C15.2554 13.7904 13.7954 15.2504 12.0054 15.2504Z" fill="white"/>
</svg>
