<svg width="16" height="16" viewBox="0 0 16 16" fill="none" xmlns="http://www.w3.org/2000/svg">
<path d="M10.26 3.47335L11.2 5.35335C11.3267 5.61335 11.6667 5.86002 11.9533 5.91335L13.6533 6.19336C14.74 6.37336 14.9933 7.16002 14.2133 7.94669L12.8867 9.27336C12.6667 9.49336 12.54 9.92669 12.6133 10.24L12.9933 11.88C13.2933 13.1734 12.6 13.68 11.46 13L9.86667 12.0534C9.58 11.88 9.1 11.88 8.81334 12.0534L7.22 13C6.08 13.6734 5.38667 13.1734 5.68667 11.88L6.06667 10.24C6.12667 9.92002 6 9.48669 5.78 9.26669L4.45334 7.94002C3.67334 7.16002 3.92667 6.37335 5.01334 6.18669L6.71334 5.90669C7 5.86002 7.34 5.60669 7.46667 5.34669L8.40667 3.46669C8.92 2.45335 9.74667 2.45335 10.26 3.47335Z" fill="#E2B04C"/>
<path d="M5.33334 3.83331H1.33334C1.06001 3.83331 0.833344 3.60665 0.833344 3.33331C0.833344 3.05998 1.06001 2.83331 1.33334 2.83331H5.33334C5.60668 2.83331 5.83334 3.05998 5.83334 3.33331C5.83334 3.60665 5.60668 3.83331 5.33334 3.83331Z" fill="#E2B04C"/>
<path d="M3.33334 13.1667H1.33334C1.06001 13.1667 0.833344 12.94 0.833344 12.6667C0.833344 12.3934 1.06001 12.1667 1.33334 12.1667H3.33334C3.60668 12.1667 3.83334 12.3934 3.83334 12.6667C3.83334 12.94 3.60668 13.1667 3.33334 13.1667Z" fill="#E2B04C"/>
<path d="M2.00001 8.5H1.33334C1.06001 8.5 0.833344 8.27333 0.833344 8C0.833344 7.72667 1.06001 7.5 1.33334 7.5H2.00001C2.27334 7.5 2.50001 7.72667 2.50001 8C2.50001 8.27333 2.27334 8.5 2.00001 8.5Z" fill="#E2B04C"/>
</svg>
