<svg width="16" height="16" viewBox="0 0 16 16" fill="none" xmlns="http://www.w3.org/2000/svg">
<path d="M10.7933 1.33334H5.20666C2.77999 1.33334 1.33333 2.78001 1.33333 5.20668V10.7867C1.33333 13.22 2.77999 14.6667 5.20666 14.6667H10.7867C13.2133 14.6667 14.66 13.22 14.66 10.7933V5.20668C14.6667 2.78001 13.22 1.33334 10.7933 1.33334ZM5.08666 12.1C5.08666 12.3733 4.86 12.6 4.58666 12.6C4.31333 12.6 4.08666 12.3733 4.08666 12.1V10.72C4.08666 10.4467 4.31333 10.22 4.58666 10.22C4.86 10.22 5.08666 10.4467 5.08666 10.72V12.1ZM8.5 12.1C8.5 12.3733 8.27333 12.6 8 12.6C7.72666 12.6 7.5 12.3733 7.5 12.1V9.33334C7.5 9.06001 7.72666 8.83334 8 8.83334C8.27333 8.83334 8.5 9.06001 8.5 9.33334V12.1ZM11.9133 12.1C11.9133 12.3733 11.6867 12.6 11.4133 12.6C11.14 12.6 10.9133 12.3733 10.9133 12.1V7.95334C10.9133 7.68001 11.14 7.45334 11.4133 7.45334C11.6867 7.45334 11.9133 7.68001 11.9133 7.95334V12.1ZM11.9133 5.84668C11.9133 6.12001 11.6867 6.34668 11.4133 6.34668C11.14 6.34668 10.9133 6.12001 10.9133 5.84668V5.20001C9.21333 6.94668 7.08666 8.18001 4.70666 8.77334C4.66666 8.78668 4.62666 8.78668 4.58666 8.78668C4.36 8.78668 4.16 8.63334 4.1 8.40668C4.03333 8.14001 4.19333 7.86668 4.46666 7.80001C6.71333 7.24001 8.71333 6.06001 10.3 4.39334H9.46666C9.19333 4.39334 8.96666 4.16668 8.96666 3.89334C8.96666 3.62001 9.19333 3.39334 9.46666 3.39334H11.42C11.4467 3.39334 11.4667 3.40668 11.4933 3.40668C11.5267 3.41334 11.56 3.41334 11.5933 3.42668C11.6267 3.44001 11.6533 3.46001 11.6867 3.48001C11.7067 3.49334 11.7267 3.50001 11.7467 3.51334C11.7533 3.52001 11.7533 3.52668 11.76 3.52668C11.7867 3.55334 11.8067 3.58001 11.8267 3.60668C11.8467 3.63334 11.8667 3.65334 11.8733 3.68001C11.8867 3.70668 11.8867 3.73334 11.8933 3.76668C11.9 3.80001 11.9133 3.83334 11.9133 3.87334C11.9133 3.88001 11.92 3.88668 11.92 3.89334V5.84668H11.9133Z" fill="#E2B04C"/>
</svg>
