<svg width="24" height="24" viewBox="0 0 24 24" fill="none" xmlns="http://www.w3.org/2000/svg">
<path d="M9 2.00098C6.38 2.00098 4.25 4.13098 4.25 6.75098C4.25 9.32098 6.26 11.401 8.88 11.491C8.96 11.481 9.04 11.481 9.1 11.491C9.12 11.491 9.13 11.491 9.15 11.491C9.16 11.491 9.16 11.491 9.17 11.491C11.73 11.401 13.74 9.32098 13.75 6.75098C13.75 4.13098 11.62 2.00098 9 2.00098Z" fill="white"/>
<path d="M14.0731 14.1489C11.2831 12.2889 6.73312 12.2889 3.92313 14.1489C2.65313 14.9989 1.95312 16.1489 1.95312 17.3789C1.95312 18.6089 2.65313 19.7489 3.91313 20.5889C5.31313 21.5289 7.15312 21.9989 8.99312 21.9989C10.8331 21.9989 12.6731 21.5289 14.0731 20.5889C15.3331 19.7389 16.0331 18.5989 16.0331 17.3589C16.0231 16.1289 15.3331 14.9889 14.0731 14.1489Z" fill="white"/>
<path d="M19.9894 7.3401C20.1494 9.2801 18.7694 10.9801 16.8594 11.2101C16.8494 11.2101 16.8494 11.2101 16.8394 11.2101H16.8094C16.7494 11.2101 16.6894 11.2101 16.6394 11.2301C15.6694 11.2801 14.7794 10.9701 14.1094 10.4001C15.1394 9.4801 15.7294 8.1001 15.6094 6.6001C15.5394 5.7901 15.2594 5.0501 14.8394 4.4201C15.2194 4.2301 15.6594 4.1101 16.1094 4.0701C18.0694 3.9001 19.8194 5.3601 19.9894 7.3401Z" fill="white"/>
<path d="M21.9922 16.5904C21.9122 17.5604 21.2922 18.4004 20.2522 18.9704C19.2522 19.5204 17.9922 19.7804 16.7422 19.7504C17.4622 19.1004 17.8822 18.2904 17.9622 17.4304C18.0622 16.1904 17.4722 15.0004 16.2922 14.0504C15.6222 13.5204 14.8422 13.1004 13.9922 12.7904C16.2022 12.1504 18.9822 12.5804 20.6922 13.9604C21.6122 14.7004 22.0822 15.6304 21.9922 16.5904Z" fill="white"/>
</svg>
