<svg width="24" height="24" viewBox="0 0 24 24" fill="none"
 viewBox="0 0 512.000000 512.000000">

<g transform="translate(0.000000,512.000000) scale(0.100000,-0.100000)"
fill="#000000" stroke="none">
<path d="M3345 4823 c-368 -32 -738 -146 -957 -294 -82 -56 -169 -148 -203
-214 -57 -113 -58 -341 -1 -453 56 -111 209 -239 380 -317 170 -79 424 -148
656 -180 167 -23 496 -30 665 -16 621 55 1074 254 1204 531 22 48 26 71 29
182 5 147 -10 212 -64 294 -155 233 -581 411 -1113 464 -94 9 -501 11 -596 3z"/>
<path d="M1235 3684 c-269 -29 -445 -64 -627 -124 -289 -96 -497 -241 -572
-399 -30 -65 -31 -69 -31 -216 0 -148 0 -151 32 -218 113 -238 496 -426 1028
-504 132 -19 612 -25 758 -10 l77 9 0 723 0 723 -47 6 c-62 7 -566 15 -618 10z"/>
<path d="M2158 3498 c-18 -63 -15 -292 5 -346 93 -248 478 -451 1011 -534 170
-26 572 -36 754 -18 579 55 1032 258 1154 516 33 68 33 70 33 219 0 98 -5 160
-13 178 l-12 29 -41 -61 c-130 -195 -481 -362 -904 -430 -286 -46 -657 -52
-925 -16 -237 33 -483 100 -654 178 -155 72 -309 193 -363 285 -14 23 -27 42
-29 42 -2 0 -9 -19 -16 -42z"/>
<path d="M2159 2743 c-9 -31 -14 -93 -13 -173 1 -149 18 -204 91 -295 263
-325 1042 -509 1778 -419 538 66 949 261 1071 511 26 53 29 70 33 183 3 120
-10 230 -29 230 -4 0 -19 -19 -33 -43 -31 -52 -112 -129 -196 -186 -176 -120
-466 -217 -793 -267 -163 -25 -598 -30 -778 -10 -527 60 -925 231 -1082 464
l-35 53 -14 -48z"/>
<path d="M10 2337 c-7 -31 -11 -104 -9 -177 4 -113 7 -131 32 -183 145 -295
663 -499 1347 -532 122 -6 405 6 488 21 l32 6 0 209 0 209 -82 -7 c-46 -5
-209 -8 -363 -7 -235 1 -303 4 -422 22 -237 37 -491 111 -645 188 -143 71
-292 194 -334 275 -8 16 -19 29 -24 29 -5 0 -14 -24 -20 -53z"/>
<path d="M2161 1959 c-18 -51 -24 -199 -12 -277 15 -94 49 -161 120 -235 175
-184 520 -322 961 -384 194 -27 635 -25 835 5 534 78 907 265 1024 512 24 52
26 64 26 205 0 99 -5 160 -13 179 l-13 29 -28 -44 c-241 -372 -1118 -576
-1921 -448 -442 70 -803 241 -931 440 -17 27 -32 49 -34 49 -2 0 -8 -14 -14
-31z"/>
<path d="M18 1619 c-9 -17 -13 -68 -13 -179 0 -140 2 -160 23 -204 117 -254
505 -445 1062 -522 157 -22 603 -25 755 -5 55 7 101 14 103 16 2 2 -6 34 -19
72 -16 51 -23 102 -27 206 -4 135 -5 138 -26 133 -11 -3 -105 -11 -208 -17
-299 -19 -641 12 -908 81 -346 91 -588 230 -703 404 l-25 38 -14 -23z"/>
<path d="M2158 1198 c-18 -63 -15 -292 5 -346 100 -266 536 -480 1117 -546
156 -18 506 -21 661 -6 532 53 958 231 1113 464 55 83 69 147 64 294 -3 70
-10 140 -16 155 l-12 29 -41 -61 c-141 -211 -520 -379 -1009 -448 -176 -25
-634 -25 -809 0 -341 48 -643 146 -822 268 -84 56 -175 143 -206 197 -14 23
-27 42 -29 42 -2 0 -9 -19 -16 -42z"/>
</g>
</svg>
