<svg width="24" height="24" viewBox="0 0 24 24" fill="none"
 viewBox="0 0 512.000000 512.000000">

<g transform="translate(0.000000,512.000000) scale(0.100000,-0.100000)"
fill="#000000" stroke="none">
<path d="M2851 5107 c-55 -21 -112 -76 -140 -136 -24 -52 -26 -67 -29 -229 -4
-198 10 -176 -122 -187 -104 -9 -314 -50 -440 -87 -701 -205 -1286 -712 -1588
-1374 -101 -222 -190 -530 -207 -724 -5 -56 -3 -70 17 -104 41 -69 122 -94
194 -60 21 10 61 51 102 103 325 417 812 699 1362 787 128 21 461 22 590 2
l85 -13 5 -190 c6 -212 15 -249 81 -314 71 -71 161 -88 266 -50 54 20 88 51
541 503 498 496 534 537 566 645 20 67 21 200 2 262 -37 122 -46 132 -554 640
-526 525 -529 527 -642 535 -30 2 -70 -2 -89 -9z"/>
<path d="M4574 2911 c-16 -10 -62 -58 -101 -107 -85 -107 -270 -288 -373 -366
-286 -216 -616 -356 -980 -414 -128 -21 -461 -22 -590 -2 l-85 13 -6 180 c-7
218 -20 264 -91 332 -74 72 -174 83 -279 32 -57 -28 -119 -87 -535 -503 -344
-343 -480 -486 -503 -526 -82 -146 -86 -321 -11 -471 15 -30 176 -198 507
-531 521 -522 535 -533 645 -545 112 -11 210 62 248 185 16 52 20 93 20 213 0
171 -13 153 120 164 100 8 301 48 428 84 931 267 1635 1058 1792 2012 20 124
17 168 -16 212 -41 55 -132 73 -190 38z"/>
</g>
</svg>
