<svg width="24" height="24" viewBox="0 0 24 24" fill="none"
 viewBox="0 0 512.000000 512.000000">


<g transform="translate(0.000000,512.000000) scale(0.100000,-0.100000)"
fill="#000000" stroke="none">
<path d="M295 5096 c-58 -27 -107 -78 -126 -133 -21 -57 -21 -4749 0 -4806 19
-55 68 -106 126 -133 l50 -24 1046 0 c1157 0 1102 -3 1171 64 50 49 72 100 71
171 0 95 -50 172 -138 212 -37 17 -98 18 -957 21 l-918 3 0 2089 0 2089 918 3
c859 3 920 4 957 21 88 40 138 117 138 212 1 71 -21 122 -71 171 -69 67 -14
64 -1171 64 l-1046 0 -50 -24z"/>
<path d="M3590 3871 c-106 -32 -172 -117 -173 -220 -1 -102 10 -115 392 -496
193 -192 351 -353 351 -357 0 -5 -651 -8 -1447 -8 -1389 0 -1450 -1 -1488 -19
-144 -67 -181 -255 -72 -370 18 -18 50 -42 72 -52 38 -18 99 -19 1488 -19 796
0 1447 -3 1447 -8 0 -4 -158 -165 -351 -357 -382 -381 -393 -394 -392 -496 2
-154 146 -258 299 -214 59 16 62 20 631 588 618 618 613 612 613 717 0 106 5
99 -613 716 -518 518 -577 573 -621 588 -53 17 -95 19 -136 7z"/>
</g>
</svg>
