<svg width="24" height="24" viewBox="0 0 24 24" fill="none"
 viewBox="0 0 512.000000 512.000000">

<g transform="translate(0.000000,512.000000) scale(0.100000,-0.100000)"
fill="#000000" stroke="none">
<path d="M995 4843 c-52 -28 -225 -184 -324 -293 -587 -649 -803 -1511 -590
-2361 83 -336 243 -663 458 -939 136 -175 404 -432 478 -457 78 -27 173 30
189 113 13 70 -8 106 -114 197 -416 358 -683 841 -768 1387 -25 160 -25 501
-1 657 77 487 276 893 603 1232 67 69 150 149 184 176 97 79 121 145 80 225
-35 69 -128 99 -195 63z"/>
<path d="M3988 4839 c-43 -22 -78 -81 -78 -129 0 -49 34 -101 100 -155 34 -27
117 -107 184 -176 327 -339 526 -745 603 -1232 24 -156 24 -497 -1 -657 -36
-231 -100 -437 -200 -645 -142 -296 -321 -529 -568 -742 -106 -91 -127 -127
-114 -197 16 -82 111 -140 187 -114 74 25 344 283 480 458 549 705 689 1658
368 2495 -110 286 -276 555 -493 797 -93 105 -277 272 -329 300 -42 23 -93 22
-139 -3z"/>
<path d="M1485 4211 c-16 -10 -62 -47 -101 -82 -388 -347 -604 -859 -581
-1374 14 -281 72 -503 198 -745 85 -165 176 -287 319 -431 167 -169 221 -194
310 -149 46 23 80 81 80 132 -1 51 -29 92 -112 166 -257 228 -420 519 -479
862 -19 108 -16 373 5 488 60 327 220 609 480 845 93 85 114 125 102 190 -18
97 -138 150 -221 98z"/>
<path d="M3483 4210 c-40 -24 -62 -57 -70 -103 -10 -62 12 -101 104 -184 259
-236 420 -518 479 -845 21 -115 24 -380 5 -488 -59 -343 -222 -634 -479 -862
-83 -74 -111 -115 -112 -166 0 -51 34 -109 80 -132 50 -26 90 -25 143 1 60 31
280 257 359 369 78 111 174 290 217 408 250 678 62 1443 -473 1921 -39 35 -84
72 -101 82 -40 25 -111 25 -152 -1z"/>
<path d="M2465 3564 c-11 -2 -45 -9 -75 -15 -219 -45 -433 -228 -523 -449 -43
-107 -51 -149 -51 -280 0 -129 10 -186 56 -295 77 -186 257 -350 449 -412 l89
-28 0 -853 c0 -835 0 -854 20 -892 23 -45 80 -80 130 -80 50 0 107 35 130 80
20 38 20 57 20 892 l0 853 89 28 c233 75 412 266 488 522 21 72 24 285 5 355
-76 276 -279 482 -547 557 -51 14 -243 26 -280 17z"/>
</g>
</svg>
