<svg version="1.0" xmlns="http://www.w3.org/2000/svg"
 width="512.000000pt" height="512.000000pt" viewBox="0 0 512.000000 512.000000"
 preserveAspectRatio="xMidYMid meet">

<g transform="translate(0.000000,512.000000) scale(0.100000,-0.100000)"
fill="#000000" stroke="none">
<path d="M4540 5104 c-201 -54 -335 -260 -300 -461 6 -34 13 -69 16 -77 3 -9
-131 -130 -395 -355 l-399 -341 -49 23 c-39 18 -66 22 -148 22 -91 0 -106 -3
-165 -31 -36 -17 -82 -45 -101 -62 l-36 -31 -345 141 -346 142 -6 60 c-8 87
-62 192 -129 252 -152 138 -369 148 -533 24 -98 -74 -151 -178 -162 -319 l-7
-83 -353 -209 -353 -210 -28 20 c-43 31 -123 59 -188 66 -167 19 -347 -84
-421 -242 -24 -52 -27 -69 -27 -168 0 -94 3 -117 23 -160 37 -80 73 -125 136
-172 202 -149 481 -90 610 129 30 52 58 172 54 231 l-3 40 354 210 354 209 61
-30 c84 -43 143 -55 234 -50 86 6 161 34 226 87 21 17 44 31 50 31 6 0 162
-62 346 -138 l335 -137 7 -59 c16 -126 104 -255 217 -314 301 -161 660 95 603
431 -10 57 -10 73 0 83 7 7 188 161 403 343 261 222 395 329 405 325 92 -35
186 -42 275 -18 116 30 212 110 268 223 30 62 32 72 32 176 0 104 -2 114 -32
176 -91 185 -288 275 -483 223z"/>
<path d="M4270 1800 l0 -1800 410 0 410 0 0 1800 0 1800 -410 0 -410 0 0
-1800z"/>
<path d="M1447 3093 c-4 -3 -7 -701 -7 -1550 l0 -1543 410 0 410 0 0 1550 0
1550 -403 0 c-222 0 -407 -3 -410 -7z"/>
<path d="M2860 1220 l0 -1220 410 0 410 0 0 1220 0 1220 -410 0 -410 0 0
-1220z"/>
<path d="M37 1923 c-4 -3 -7 -438 -7 -965 l0 -958 410 0 410 0 0 965 0 965
-403 0 c-222 0 -407 -3 -410 -7z"/>
</g>
</svg>
