<svg width="24" height="24" viewBox="0 0 24 24" fill="none"
 viewBox="0 0 512.000000 512.000000">

<g transform="translate(0.000000,512.000000) scale(0.100000,-0.100000)"
fill="#000000" stroke="none">
<path d="M3884 5086 c-24 -24 -34 -43 -34 -66 0 -23 10 -41 34 -66 l34 -34
203 0 204 0 -495 -495 -495 -495 -200 200 c-201 200 -201 200 -245 200 l-45 0
-921 -922 c-640 -640 -923 -931 -926 -948 -10 -69 30 -120 96 -120 l41 0 877
877 878 878 197 -197 c198 -196 226 -217 275 -203 13 4 265 248 561 543 l537
537 1 -165 c0 -193 8 -227 60 -254 42 -23 79 -17 115 19 l24 24 0 326 c0 205
-4 333 -10 346 -25 46 -48 49 -401 49 l-331 0 -34 -34z"/>
<path d="M3800 3629 c-60 -27 -107 -74 -136 -134 l-24 -50 0 -1622 0 -1623
-280 0 -280 0 0 888 c0 573 -4 900 -10 924 -18 62 -71 128 -130 162 l-55 31
-320 0 c-309 0 -321 -1 -361 -22 -54 -29 -102 -79 -128 -133 -21 -45 -21 -51
-24 -947 l-3 -903 -274 0 -274 0 -3 478 c-3 473 -3 477 -26 527 -32 69 -86
121 -149 145 -49 18 -79 20 -342 20 -317 0 -345 -4 -414 -61 -20 -17 -49 -52
-65 -77 l-27 -47 -3 -492 -3 -493 -125 0 c-164 0 -204 -19 -204 -100 0 -42 15
-67 50 -85 26 -13 302 -15 2370 -15 2068 0 2344 2 2370 15 35 18 50 43 50 85
0 80 -40 100 -200 100 l-120 0 0 1623 0 1622 -24 50 c-29 63 -68 102 -131 131
-49 23 -56 24 -355 24 -285 0 -308 -2 -350 -21z m642 -196 c17 -15 18 -79 18
-1625 l0 -1608 -310 0 -310 0 0 1607 c0 1481 1 1608 17 1625 15 17 37 18 291
18 242 0 278 -2 294 -17z m-1585 -1445 l23 -21 0 -884 0 -883 -315 0 -315 0 0
880 0 881 25 24 24 25 267 0 c261 0 268 -1 291 -22z m-1589 -834 l22 -15 0
-470 0 -469 -310 0 -310 0 0 465 c0 452 1 466 20 485 19 19 33 20 288 20 226
0 271 -2 290 -16z"/>
<path d="M733 2183 c-12 -2 -33 -16 -47 -30 -58 -58 -14 -163 68 -163 105 0
137 146 41 186 -19 8 -36 13 -37 13 -2 -1 -13 -4 -25 -6z"/>
</g>
</svg>
