<svg width="24" height="24" viewBox="0 0 24 24" fill="none"
 viewBox="0 0 512.000000 512.000000">

<g transform="translate(0.000000,512.000000) scale(0.100000,-0.100000)"
fill="#000000" stroke="none">
<path d="M2090 4900 c-563 -34 -1072 -170 -1400 -373 -233 -145 -379 -309
-447 -502 l-28 -80 0 -515 0 -515 28 -88 c48 -154 116 -266 224 -369 50 -47
161 -128 192 -140 5 -2 3 -32 -5 -68 -20 -97 -20 -997 1 -1094 92 -434 675
-784 1500 -900 295 -41 728 -53 1005 -27 919 87 1556 408 1717 866 l28 80 0
515 0 515 -28 88 c-48 154 -116 266 -224 369 -50 47 -161 128 -192 140 -5 2
-3 32 5 68 20 97 20 997 -1 1094 -99 468 -757 829 -1677 921 -184 18 -525 26
-698 15z m545 -430 c286 -22 541 -69 774 -146 386 -127 641 -319 641 -484 0
-165 -255 -357 -641 -484 -634 -208 -1494 -207 -2136 3 -362 119 -633 324
-633 481 0 157 271 363 633 481 220 72 511 128 762 148 160 12 439 12 600 1z
m-1845 -1360 c342 -171 650 -263 1080 -322 152 -21 830 -17 990 5 394 55 729
157 1049 318 75 38 137 69 138 69 2 0 3 -53 3 -117 0 -141 -13 -175 -92 -259
-197 -208 -632 -368 -1188 -436 -144 -18 -709 -17 -855 0 -125 16 -351 55
-440 78 -409 103 -730 284 -810 456 -22 46 -25 67 -25 166 0 61 2 112 5 112 3
0 68 -32 145 -70z m3481 -696 c74 -50 145 -120 177 -174 21 -36 27 -57 27
-105 -1 -71 -16 -102 -86 -179 -158 -173 -526 -330 -948 -406 -410 -73 -934
-73 -1342 0 -495 90 -901 287 -1003 488 -31 61 -34 87 -8 77 63 -24 307 -89
430 -114 326 -66 562 -86 912 -78 454 11 811 69 1155 187 175 60 421 184 530
268 50 39 93 70 96 71 4 1 31 -15 60 -35z m-2818 -1118 c281 -113 560 -182
877 -217 141 -15 733 -15 885 0 404 41 820 165 1163 346 l102 54 0 -117 c0
-143 -13 -175 -102 -268 -205 -214 -636 -369 -1213 -436 -144 -17 -645 -17
-790 0 -551 64 -999 223 -1205 430 -86 87 -100 124 -100 269 l0 121 124 -64
c68 -35 184 -88 259 -118z"/>
</g>
</svg>
