<svg width="24" height="24" viewBox="0 0 24 24" fill="none"
 viewBox="0 0 512.000000 512.000000">

<g transform="translate(0.000000,512.000000) scale(0.100000,-0.100000)"
fill="#000000" stroke="none">
<path d="M893 4335 c-154 -42 -300 -175 -349 -318 l-16 -46 -221 -3 c-213 -3
-223 -4 -254 -26 -67 -48 -67 -156 0 -204 31 -22 41 -23 254 -26 l221 -3 16
-46 c22 -65 68 -133 129 -190 162 -154 382 -186 586 -87 101 49 223 193 251
294 l6 25 1760 5 1759 5 32 23 c67 48 67 156 0 204 l-32 23 -1759 5 -1760 5
-6 25 c-28 101 -150 245 -251 294 -115 56 -253 71 -366 41z m232 -260 c45 -18
92 -62 123 -114 23 -39 27 -57 27 -121 0 -64 -4 -82 -27 -121 -32 -54 -78 -96
-128 -117 -45 -19 -145 -19 -191 1 -92 38 -159 137 -159 237 0 87 39 156 123
220 49 37 161 44 232 15z"/>
<path d="M3976 3059 c-156 -37 -327 -194 -365 -338 l-7 -26 -1760 -5 -1759 -5
-32 -23 c-67 -48 -67 -156 0 -204 l32 -23 1759 -5 1760 -5 6 -25 c28 -101 150
-245 251 -294 155 -75 323 -75 471 0 99 50 209 175 244 277 l16 46 221 3 c213
3 223 4 254 26 67 48 67 156 0 204 -31 22 -41 23 -254 26 l-221 3 -16 46 c-50
145 -196 277 -353 318 -62 16 -186 18 -247 4z m220 -264 c49 -20 105 -76 130
-130 60 -128 -3 -287 -135 -342 -46 -20 -146 -20 -191 -1 -84 35 -148 121
-157 210 -20 194 172 337 353 263z"/>
<path d="M2433 1775 c-144 -39 -267 -139 -328 -266 -19 -41 -35 -79 -35 -86 0
-10 -201 -13 -992 -15 l-993 -3 -32 -23 c-67 -48 -67 -156 0 -204 l32 -23 993
-3 c791 -2 992 -5 992 -15 0 -7 16 -45 35 -86 148 -309 575 -377 818 -128 54
54 127 178 127 214 0 10 201 13 993 15 l992 3 32 23 c67 48 67 156 0 204 l-32
23 -992 3 c-792 2 -993 5 -993 15 0 7 -16 46 -35 86 -101 210 -356 326 -582
266z m247 -273 c179 -89 178 -354 -3 -446 -153 -78 -330 6 -366 174 -28 131
53 260 187 296 60 17 113 10 182 -24z"/>
</g>
</svg>