<svg width="24" height="24" viewBox="0 0 24 24" fill="none"
 viewBox="0 0 512.000000 512.000000">

<g transform="translate(0.000000,512.000000) scale(0.100000,-0.100000)"
fill="#000000" stroke="none">
<path d="M3590 4559 c-32 -13 -77 -56 -98 -94 -15 -26 -17 -73 -20 -327 l-3
-298 -668 -2 -667 -3 -36 -24 c-140 -96 -101 -296 65 -331 38 -7 277 -10 798
-8 812 3 771 0 826 60 45 48 53 87 53 255 l0 158 417 -418 418 -417 -418 -417
-417 -418 0 158 c0 201 -15 244 -102 288 -36 18 -76 19 -1062 19 l-1025 0 -3
298 c-3 286 -4 299 -25 339 -42 77 -145 114 -230 83 -42 -16 -1350 -1325
-1374 -1375 -24 -51 -24 -99 0 -150 13 -27 230 -251 682 -701 714 -712 691
-692 786 -681 51 5 107 45 138 98 19 32 20 55 23 331 l4 298 667 2 667 3 36
24 c140 96 101 296 -65 331 -38 7 -277 10 -798 8 -811 -3 -772 0 -825 -60 -45
-48 -49 -68 -54 -241 l-5 -167 -418 417 -417 418 420 420 420 420 0 -163 c0
-207 14 -248 102 -293 36 -18 76 -19 1062 -19 l1025 0 3 -297 c3 -287 4 -300
25 -340 42 -77 145 -114 230 -83 42 16 1350 1325 1374 1375 23 49 24 94 4 143
-22 51 -1313 1346 -1370 1373 -43 20 -105 24 -145 8z"/>
</g>
</svg>
