<svg width="24" height="24" viewBox="0 0 24 24" fill="none"
 viewBox="0 0 512.000000 512.000000">

<g transform="translate(0.000000,512.000000) scale(0.100000,-0.100000)"
fill="#000000" stroke="none">
<path d="M2370 5114 c-19 -2 -78 -9 -130 -15 -788 -90 -1517 -582 -1919 -1296
-285 -506 -385 -1128 -276 -1718 85 -460 318 -923 627 -1250 62 -66 86 -85
107 -85 30 1 53 16 70 48 18 33 7 55 -66 135 -329 364 -534 796 -610 1287 -25
163 -24 519 1 685 83 544 329 1018 725 1397 187 179 376 311 606 423 167 81
291 127 462 170 225 56 338 69 593 69 253 0 376 -14 595 -69 846 -213 1527
-894 1740 -1740 55 -219 69 -342 69 -595 0 -253 -14 -376 -69 -595 -213 -846
-894 -1527 -1740 -1740 -219 -55 -342 -69 -595 -69 -165 0 -256 4 -340 17
-385 59 -719 192 -1042 413 -64 44 -87 54 -107 49 -52 -12 -79 -78 -49 -117
19 -23 160 -118 268 -180 832 -477 1874 -445 2672 80 1266 835 1539 2571 591
3747 -409 507 -974 829 -1633 930 -100 15 -472 28 -550 19z"/>
<path d="M1805 3933 c-386 -62 -685 -327 -787 -698 -32 -119 -32 -364 0 -485
29 -104 99 -256 152 -327 22 -28 40 -55 40 -57 0 -3 -15 -26 -34 -50 -44 -57
-59 -103 -58 -181 0 -75 27 -144 80 -199 46 -48 124 -86 178 -86 l42 0 11 -61
c24 -137 125 -234 264 -254 l47 -6 0 -43 c0 -119 122 -241 263 -261 l47 -7 0
-42 c1 -126 123 -242 267 -254 78 -6 140 11 204 54 l48 34 28 -24 c89 -75 208
-93 308 -48 95 44 162 132 172 226 l6 55 46 7 c138 19 246 124 260 252 l6 57
50 6 c139 17 239 118 260 262 l7 47 42 0 c89 0 201 81 246 178 33 69 25 166
-19 249 -18 34 -41 69 -51 78 -18 16 -17 19 26 78 165 224 221 540 144 815
-90 324 -350 577 -686 668 -55 15 -103 19 -239 18 -155 0 -178 -3 -258 -27
-105 -33 -222 -90 -297 -146 -30 -22 -57 -41 -61 -41 -3 0 -26 16 -51 34 -153
117 -326 175 -538 181 -74 2 -148 1 -165 -2z m288 -157 c92 -18 193 -57 267
-104 106 -66 122 -34 -153 -311 -275 -277 -284 -290 -275 -405 13 -152 154
-286 302 -286 103 0 122 14 389 279 l247 245 188 -187 c157 -156 193 -187 217
-187 40 0 75 36 75 76 0 28 -24 57 -205 242 -209 214 -254 250 -297 233 -12
-5 -138 -125 -278 -266 -140 -141 -267 -263 -282 -271 -61 -32 -138 -5 -185
65 -26 39 -30 90 -9 129 23 43 585 595 649 636 212 138 504 167 737 73 185
-75 345 -228 431 -410 73 -157 93 -367 50 -532 -21 -82 -95 -239 -134 -287
l-22 -27 -105 99 c-83 78 -111 99 -134 100 -40 0 -76 -35 -76 -74 0 -26 23
-52 163 -188 219 -211 248 -256 211 -333 -32 -67 -143 -107 -207 -74 -12 6
-144 132 -292 280 -294 292 -299 296 -350 244 -52 -51 -48 -56 244 -350 148
-148 274 -280 280 -292 17 -34 13 -95 -9 -131 -29 -47 -76 -72 -134 -72 l-50
0 -281 280 c-305 304 -309 307 -360 255 -52 -51 -48 -56 249 -355 182 -182
277 -284 282 -303 3 -16 4 -46 1 -69 -11 -80 -107 -143 -181 -118 -51 17 -151
126 -170 187 -33 99 -138 185 -246 199 l-47 6 -6 48 c-15 129 -126 239 -257
256 l-47 6 -6 49 c-8 64 -50 142 -101 185 -43 37 -131 74 -175 74 -26 0 -29 4
-35 48 -20 148 -146 262 -290 262 -95 0 -141 -24 -252 -132 l-102 -99 -36 63
c-97 174 -139 321 -139 488 -1 140 16 210 79 340 80 162 259 321 429 380 140
49 299 62 438 36z m-370 -1237 c39 -20 76 -61 88 -96 23 -71 9 -95 -154 -261
-84 -85 -164 -160 -179 -168 -39 -20 -107 -17 -145 6 -34 21 -60 62 -64 101
-7 73 -4 78 154 237 83 85 166 163 182 173 34 21 85 25 118 8z m336 -326 c64
-48 88 -123 57 -181 -8 -15 -83 -95 -168 -178 -183 -181 -212 -195 -307 -144
-54 28 -79 128 -47 188 16 30 299 313 331 331 28 16 102 7 134 -16z m310 -311
c61 -45 87 -121 60 -175 -6 -12 -82 -93 -168 -180 -121 -122 -164 -160 -193
-168 -68 -18 -133 12 -167 78 -15 30 -14 99 3 131 20 36 293 307 331 327 37
20 98 14 134 -13z m310 -310 c51 -37 73 -82 68 -136 -4 -47 -7 -51 -168 -212
-107 -107 -175 -168 -197 -175 -114 -38 -216 80 -171 198 13 35 259 286 319
325 52 34 104 34 149 0z m227 -307 c51 -88 15 -189 -78 -217 -31 -9 -45 -8
-82 6 -80 31 -79 35 23 141 50 53 91 100 91 105 0 23 21 7 46 -35z"/>
</g>
</svg>
