<svg width="24" height="24" viewBox="0 0 24 24" fill="none" xmlns="http://www.w3.org/2000/svg">
<path d="M14.5004 14C14.4004 14 14.2003 14 14.1003 13.9C13.9003 13.7 13.9003 13.4 14.1003 13.2L19.3004 8C19.4004 7.9 19.4004 7.80001 19.4004 7.70001V5C19.4004 4.7 19.2004 4.5 18.9004 4.5H4.90039C4.60039 4.5 4.40039 4.7 4.40039 5V7.59998C4.40039 7.69998 4.50037 7.90002 4.50037 7.90002L9.70038 13.1C9.90038 13.3 9.90038 13.6 9.70038 13.8C9.50038 14 9.20037 14 9.00037 13.8L3.80035 8.59998C3.50035 8.29998 3.40039 7.9 3.40039 7.5V5C3.40039 4.2 4.10039 3.5 4.90039 3.5H18.9004C19.7004 3.5 20.4004 4.2 20.4004 5V7.59998C20.4004 7.99998 20.2004 8.40001 20.0004 8.70001L14.8004 13.9C14.8004 14 14.6004 14 14.5004 14Z" fill="#30354E"/>
<path d="M10.7004 21.5C10.3004 21.5 9.90034 21.4 9.60034 21.1C9.20034 20.8 8.90039 20.3 8.90039 19.7V13.5C8.90039 13.2 9.10039 13 9.40039 13C9.70039 13 9.90039 13.2 9.90039 13.5V19.7C9.90039 19.9 10.0004 20.1 10.2004 20.3C10.4004 20.4 10.6004 20.5 10.8004 20.4L13.3004 19.8C13.6004 19.7 13.9004 19.4 13.9004 19.1V13.5C13.9004 13.2 14.1004 13 14.4004 13C14.7004 13 14.9004 13.2 14.9004 13.5V19.1C14.9004 19.9 14.4003 20.6 13.6003 20.8L11.1003 21.4C11.0003 21.5 10.9004 21.5 10.7004 21.5Z" fill="#30354E"/>
</svg>
