<svg width="24" height="24" viewBox="0 0 24 24" fill="none" xmlns="http://www.w3.org/2000/svg">
<path d="M19.3996 13.4999C18.6996 13.4999 18.0996 13.1999 17.5996 12.7999C16.5996 11.7999 16.5996 10.2 17.5996 9.19995C18.5996 8.19995 20.1996 8.19995 21.1996 9.19995C22.1996 10.2 22.1996 11.7999 21.1996 12.7999C20.6996 13.1999 19.9996 13.4999 19.3996 13.4999ZM19.3996 9.39996C18.9996 9.39996 18.5996 9.59993 18.2996 9.79993C17.6996 10.3999 17.6996 11.3999 18.2996 11.9999C18.8996 12.5999 19.8996 12.5999 20.4996 11.9999C21.0996 11.3999 21.0996 10.3999 20.4996 9.79993C20.1996 9.59993 19.7996 9.39996 19.3996 9.39996Z" fill="#30354E"/>
<path d="M11.9996 11.7C11.0996 11.7 10.0996 11.2999 9.39961 10.5999C7.99961 9.19993 7.99961 6.89995 9.39961 5.49995C10.7996 4.09995 13.0996 4.09995 14.4996 5.49995C15.8996 6.89995 15.8996 9.19993 14.4996 10.5999C13.8996 11.3999 12.8996 11.7 11.9996 11.7ZM11.9996 5.49995C11.2996 5.49995 10.6996 5.79994 10.1996 6.29994C9.19961 7.29994 9.19961 8.99995 10.1996 9.99995C11.1996 11 12.8996 11 13.8996 9.99995C14.8996 8.99995 14.8996 7.29994 13.8996 6.29994C13.2996 5.79994 12.6996 5.49995 11.9996 5.49995Z" fill="#30354E"/>
<path d="M4.59961 13.4999C3.89961 13.4999 3.29961 13.1999 2.79961 12.7999C2.29961 12.2999 2.09961 11.6999 2.09961 10.9999C2.09961 10.2999 2.39961 9.69995 2.79961 9.19995C3.79961 8.19995 5.39961 8.19995 6.39961 9.19995C7.39961 10.2 7.39961 11.7999 6.39961 12.7999C5.89961 13.1999 5.29961 13.4999 4.59961 13.4999ZM4.59961 9.39996C4.19961 9.39996 3.79961 9.59993 3.49961 9.79993C3.19961 10.0999 3.09961 10.5 3.09961 10.9C3.09961 11.3 3.29961 11.6999 3.49961 11.9999C4.09961 12.5999 5.09961 12.5999 5.69961 11.9999C6.29961 11.3999 6.29961 10.3999 5.69961 9.79993C5.39961 9.59993 4.99961 9.39996 4.59961 9.39996Z" fill="#30354E"/>
<path d="M22.9992 19.4999C22.6992 19.4999 22.4992 19.2999 22.4992 18.9999V17.8999C22.4992 16.7999 21.5992 15.8999 20.4992 15.8999H19.6992C19.3992 15.8999 19.1992 15.6999 19.1992 15.3999C19.1992 15.0999 19.3992 14.8999 19.6992 14.8999H20.4992C22.1992 14.8999 23.4992 16.1999 23.4992 17.8999V18.9999C23.4992 19.2999 23.2992 19.4999 22.9992 19.4999Z" fill="#30354E"/>
<path d="M1 19.4999C0.7 19.4999 0.5 19.2999 0.5 18.9999V17.8999C0.5 16.1999 1.8 14.8999 3.5 14.8999H4.3C4.6 14.8999 4.8 15.0999 4.8 15.3999C4.8 15.6999 4.6 15.8999 4.3 15.8999H3.5C2.4 15.8999 1.5 16.7999 1.5 17.8999V18.9999C1.5 19.2999 1.3 19.4999 1 19.4999Z" fill="#30354E"/>
<path d="M17.2996 19.4999C16.9996 19.4999 16.7996 19.2999 16.7996 18.9999V17.3999C16.7996 15.6999 15.4996 14.3999 13.7996 14.3999H10.0996C8.39961 14.3999 7.09961 15.6999 7.09961 17.3999V18.9999C7.09961 19.2999 6.89961 19.4999 6.59961 19.4999C6.29961 19.4999 6.09961 19.2999 6.09961 18.9999V17.3999C6.09961 15.1999 7.89961 13.3999 10.0996 13.3999H13.7996C15.9996 13.3999 17.7996 15.1999 17.7996 17.3999V18.9999C17.7996 19.2999 17.5996 19.4999 17.2996 19.4999Z" fill="#30354E"/>
</svg>
