<?xml version="1.0" standalone="no"?>
<!DOCTYPE svg PUBLIC "-//W3C//DTD SVG 20010904//EN"
 "http://www.w3.org/TR/2001/REC-SVG-20010904/DTD/svg10.dtd">
<svg version="1.0" xmlns="http://www.w3.org/2000/svg"
 width="512.000000pt" height="512.000000pt" viewBox="0 0 512.000000 512.000000"
 preserveAspectRatio="xMidYMid meet">

<g transform="translate(0.000000,512.000000) scale(0.100000,-0.100000)"
fill="#000000" stroke="none">
<path d="M144 5036 c-28 -13 -65 -41 -82 -62 -66 -80 -62 56 -62 -1924 0
-2029 -7 -1867 78 -1947 38 -36 238 -144 1012 -544 935 -484 966 -500 1013
-496 27 2 56 12 68 23 48 43 49 53 49 568 l0 485 588 3 587 3 47 23 c26 13 61
40 79 59 67 77 64 35 67 821 l3 712 -250 0 -250 0 -3 -514 c-3 -502 -3 -515
-24 -543 -46 -63 -50 -63 -464 -61 l-375 3 -5 1095 c-6 1218 0 1127 -74 1201
-25 25 -203 121 -600 325 l-564 289 1001 3 c734 2 1009 -1 1030 -9 15 -6 38
-26 50 -43 21 -30 22 -41 25 -299 l3 -267 247 2 247 3 0 460 c0 445 -1 461
-21 505 -23 51 -71 102 -118 128 -29 16 -140 17 -1641 19 l-1610 3 -51 -24z"/>
<path d="M3957 4424 c-102 -32 -178 -153 -163 -258 14 -89 46 -133 245 -331
l191 -190 -742 -5 c-736 -5 -743 -5 -783 -26 -87 -47 -135 -121 -143 -221 -12
-152 71 -266 213 -292 38 -7 303 -11 759 -11 l701 -1 -197 -192 c-207 -202
-229 -231 -243 -329 -10 -68 15 -146 64 -196 53 -55 93 -74 167 -80 52 -4 71
0 120 22 52 24 113 81 490 459 289 289 439 446 454 475 31 63 36 128 15 193
-16 51 -46 83 -462 500 -293 294 -459 454 -487 467 -57 29 -139 36 -199 16z"/>
</g>
</svg>
