<svg width="24" height="24" viewBox="0 0 24 24" fill="none"
 viewBox="0 0 512.000000 512.000000">

<g transform="translate(0.000000,512.000000) scale(0.100000,-0.100000)"
fill="#000000" stroke="none">
<path d="M1686 5104 c-172 -42 -333 -194 -382 -361 l-15 -53 -182 0 c-153 0
-186 -3 -206 -16 -32 -23 -51 -74 -51 -139 l0 -55 -187 0 c-279 0 -374 -31
-503 -160 -74 -74 -123 -158 -145 -251 -22 -97 -22 -2921 0 -3018 35 -148 148
-289 285 -353 41 -20 99 -41 128 -47 36 -7 307 -11 838 -11 715 0 788 1 814
17 55 32 67 112 26 160 l-24 28 -809 5 -808 5 -67 33 c-76 37 -120 82 -157
162 l-26 55 0 1455 0 1455 33 67 c37 76 82 120 162 157 52 25 65 26 248 29
l192 4 0 -61 c0 -129 34 -215 112 -288 89 -82 51 -78 858 -78 l715 0 57 28
c62 31 116 84 149 149 17 33 24 67 28 143 l6 100 195 0 c190 0 196 -1 251 -26
69 -33 127 -89 160 -155 24 -49 24 -52 29 -429 5 -410 6 -412 60 -440 37 -19
63 -19 101 1 56 28 59 50 59 411 0 384 -6 439 -59 548 -64 134 -158 220 -297
273 -65 24 -82 26 -286 30 l-218 4 0 73 c0 64 -3 78 -24 102 l-24 28 -193 5
-192 5 -12 41 c-79 269 -366 434 -639 368z m260 -228 c102 -47 169 -142 184
-260 16 -128 31 -136 260 -136 l170 0 0 -170 c0 -193 -8 -222 -65 -246 -50
-21 -1309 -21 -1359 0 -62 26 -66 40 -66 238 l0 178 171 0 c223 0 238 8 254
135 13 102 72 195 153 242 98 58 199 64 298 19z"/>
<path d="M693 3398 c-57 -28 -67 -122 -17 -169 l26 -24 1099 -3 c1223 -3 1145
-7 1175 65 19 43 5 93 -33 123 -25 20 -37 20 -1127 19 -741 0 -1108 -4 -1123
-11z"/>
<path d="M693 2758 c-57 -28 -67 -122 -17 -169 l26 -24 779 -3 c868 -3 826 -6
855 65 19 43 5 93 -33 123 -25 20 -38 20 -807 19 -519 0 -788 -4 -803 -11z"/>
<path d="M3510 2756 c-607 -108 -1065 -580 -1151 -1185 -15 -106 -7 -361 15
-461 58 -265 179 -492 367 -685 201 -207 431 -334 717 -397 145 -32 407 -32
551 0 285 64 502 182 702 381 199 200 317 417 381 702 32 144 32 406 0 551
-30 137 -66 237 -127 356 -74 143 -151 245 -270 361 -191 186 -415 307 -680
366 -97 22 -405 29 -505 11z m480 -225 c429 -98 771 -431 880 -857 102 -396
-17 -822 -309 -1115 -403 -403 -1018 -458 -1496 -135 -141 95 -302 281 -384
443 -96 192 -139 442 -111 659 65 520 463 935 978 1019 115 19 328 12 442 -14z"/>
<path d="M4218 1909 c-9 -5 -171 -185 -359 -400 l-342 -391 -171 170 c-94 93
-182 177 -196 186 -13 9 -42 16 -63 16 -77 0 -122 -84 -83 -158 8 -15 115
-127 238 -248 241 -240 257 -250 320 -219 21 10 178 183 421 461 374 429 387
446 387 485 0 77 -90 135 -152 98z"/>
<path d="M693 2118 c-57 -28 -67 -122 -17 -169 l26 -24 578 0 578 0 26 24 c51
48 40 142 -20 170 -33 15 -1139 14 -1171 -1z"/>
</g>
</svg>
