<svg xmlns="http://www.w3.org/2000/svg" viewBox="0 0 30 30">
  <g id="Reports" transform="translate(-236 -188)">
    <g id="chart-2" transform="translate(236 188)">
      <path id="Vector" d="M18.449,0H7.554C2.821,0,0,2.821,0,7.553V18.434C0,23.179,2.821,26,7.554,26H18.436c4.733,0,7.554-2.821,7.554-7.553V7.553C26,2.821,23.182,0,18.449,0ZM10.284,18.447a1.515,1.515,0,0,1-3.029,0V14.209a1.515,1.515,0,0,1,3.029,0Zm8.464,0a1.515,1.515,0,0,1-3.029,0V7.553a1.515,1.515,0,0,1,3.029,0Z" transform="translate(2 2)"/>
      <path id="Vector-2" data-name="Vector" d="M0,0H30V30H0Z" transform="translate(30 30) rotate(180)" fill="none" opacity="0"/>
    </g>
  </g>
</svg>
