<?xml version="1.0" standalone="no"?>
<!DOCTYPE svg PUBLIC "-//W3C//DTD SVG 20010904//EN"
 "http://www.w3.org/TR/2001/REC-SVG-20010904/DTD/svg10.dtd">
<svg version="1.0" xmlns="http://www.w3.org/2000/svg"
 width="512.000000pt" height="512.000000pt" viewBox="0 0 512.000000 512.000000"
 preserveAspectRatio="xMidYMid meet">

<g transform="translate(0.000000,512.000000) scale(0.100000,-0.100000)"
fill="#000000" stroke="none">
<path d="M4415 4933 c-228 -82 -356 -306 -304 -532 28 -122 134 -255 241 -301
l58 -25 0 -162 c0 -134 -3 -164 -16 -177 -13 -13 -44 -16 -188 -16 l-174 0
-22 53 c-69 162 -214 362 -370 510 -288 273 -649 430 -1071 463 -96 7 -144 -8
-154 -49 -3 -12 -4 -383 -3 -824 3 -792 3 -802 24 -829 11 -15 33 -37 48 -48
27 -21 38 -21 804 -24 427 -2 792 0 810 3 58 11 72 34 72 123 0 69 -18 223
-36 310 l-6 32 145 0 c123 0 155 3 201 21 72 27 145 93 181 166 29 57 30 60
33 253 l4 195 56 25 c32 14 79 47 112 80 228 222 168 586 -118 728 -70 34 -83
37 -176 40 -77 2 -113 -2 -151 -15z m233 -292 c87 -62 95 -190 16 -262 -138
-127 -349 34 -264 201 18 35 54 68 90 83 33 14 126 1 158 -22z"/>
<path d="M1791 4349 c-836 -92 -1499 -753 -1591 -1588 -15 -137 -8 -367 15
-501 58 -324 208 -635 425 -880 l56 -63 55 59 c31 32 340 369 688 747 l631
689 0 748 c0 876 12 794 -117 797 -43 0 -116 -3 -162 -8z"/>
<path d="M1538 1913 c-650 -708 -676 -738 -660 -756 65 -72 374 -238 552 -296
551 -181 1176 -74 1635 278 l80 62 5 -238 c5 -220 7 -242 28 -287 37 -80 85
-132 160 -168 l67 -33 365 -3 365 -3 24 -44 c34 -64 129 -151 206 -186 51 -24
84 -32 149 -36 142 -9 246 28 346 123 270 257 128 703 -243 767 -203 34 -424
-97 -490 -293 l-15 -45 -323 -3 c-289 -2 -324 -1 -341 14 -17 16 -18 40 -18
380 l0 364 51 75 c98 147 192 360 238 543 43 170 66 435 41 482 -21 39 -49 40
-809 40 l-736 0 -677 -737z m3069 -1104 c95 -35 139 -149 93 -239 -31 -61 -73
-85 -150 -85 -77 0 -119 24 -150 85 -69 136 66 292 207 239z"/>
</g>
</svg>
