<svg xmlns="http://www.w3.org/2000/svg" viewBox="0 0 30 30">
  <g id="Setting" transform="translate(-300 -190)">
    <g id="setting-2" transform="translate(300 190)">
      <path id="Vector" d="M23.527,8.775c-2.353,0-3.315-1.687-2.145-3.756a2.518,2.518,0,0,0-.91-3.413L18.224.3a2.153,2.153,0,0,0-2.964.791l-.143.25c-1.17,2.069-3.094,2.069-4.277,0l-.143-.25A2.118,2.118,0,0,0,7.76.3l-2.249,1.3A2.534,2.534,0,0,0,4.6,5.033c1.183,2.056.221,3.743-2.132,3.743A2.494,2.494,0,0,0,0,11.279V13.6a2.494,2.494,0,0,0,2.47,2.5c2.353,0,3.315,1.687,2.132,3.756a2.518,2.518,0,0,0,.91,3.413l2.249,1.3a2.153,2.153,0,0,0,2.964-.791l.143-.25c1.17-2.069,3.094-2.069,4.277,0l.143.25a2.153,2.153,0,0,0,2.964.791l2.249-1.3a2.522,2.522,0,0,0,.91-3.413c-1.183-2.069-.221-3.756,2.132-3.756a2.494,2.494,0,0,0,2.47-2.5V11.279A2.514,2.514,0,0,0,23.527,8.775ZM13,16.722a4.283,4.283,0,1,1,4.225-4.283A4.262,4.262,0,0,1,13,16.722Z" transform="translate(2 2.561)"/>
      <path id="Vector-2" data-name="Vector" d="M0,0H30V30H0Z" transform="translate(30 30) rotate(180)" fill="none" opacity="0"/>
    </g>
  </g>
</svg>
