<svg width="24" height="24" viewBox="0 0 24 24" fill="none"
 viewBox="0 0 512.000000 512.000000">

<g transform="translate(0.000000,512.000000) scale(0.100000,-0.100000)"
>
<path d="M143 4655 c-34 -24 -47 -76 -29 -119 11 -27 28 -42 78 -67 228 -114
365 -257 439 -459 28 -79 59 -224 59 -281 l0 -29 -141 0 -141 0 -29 -29 c-34
-34 -39 -82 -11 -122 38 -58 595 -651 619 -660 44 -16 76 -1 140 64 85 88 515
567 536 597 24 35 22 84 -7 117 -24 28 -25 28 -172 33 l-148 5 3 160 c4 243
-31 433 -120 661 -46 117 -70 144 -131 144 -28 0 -46 -7 -63 -24 -42 -42 -41
-67 3 -179 102 -256 137 -539 97 -785 -14 -83 -14 -96 0 -122 21 -41 48 -53
142 -59 l83 -6 -165 -182 -165 -182 -169 182 -169 182 37 3 c93 6 124 14 147
39 22 24 24 34 24 127 0 373 -161 700 -435 882 -169 113 -261 145 -312 109z"/>
<path d="M2027 4650 c-49 -39 -45 -68 32 -260 39 -96 86 -230 105 -296 33
-116 66 -296 66 -363 l0 -31 -131 0 -131 0 -29 -29 c-31 -32 -38 -75 -18 -113
12 -22 555 -634 583 -658 27 -21 90 -18 117 5 32 29 562 615 582 645 27 39 22
87 -12 121 l-29 29 -138 0 -137 0 7 78 c16 183 66 365 173 626 71 176 75 208
26 246 -35 28 -94 27 -127 -2 -52 -48 -197 -437 -241 -649 -26 -127 -44 -380
-31 -432 9 -39 46 -58 125 -66 l70 -6 -160 -177 c-88 -98 -164 -178 -168 -178
-5 0 -79 80 -166 178 l-157 177 58 6 c80 8 99 15 120 46 25 39 14 283 -20 448
-45 214 -190 605 -242 653 -33 29 -92 30 -127 2z"/>
<path d="M3981 4654 c-47 -33 -137 -284 -173 -482 -16 -88 -21 -161 -22 -294
l-1 -178 -143 0 -144 0 -29 -29 c-34 -34 -39 -82 -12 -121 21 -30 452 -510
536 -597 64 -65 96 -80 140 -64 24 9 581 602 619 660 28 40 23 88 -11 122
l-29 29 -141 0 -141 0 0 29 c0 57 31 202 59 281 74 202 211 345 439 459 76 38
101 79 82 137 -26 77 -95 85 -209 22 -280 -153 -444 -347 -523 -618 -29 -103
-48 -236 -48 -348 0 -95 2 -105 24 -127 23 -22 57 -31 147 -37 l37 -3 -169
-182 -169 -182 -165 182 -165 182 83 6 c97 7 124 19 143 65 12 29 13 45 3 97
-16 81 -16 330 0 432 18 118 56 254 102 371 45 113 46 138 4 180 -29 29 -88
33 -124 8z"/>
<path d="M496 2708 c-45 -40 -496 -737 -496 -767 0 -20 28 -82 42 -93 2 -1 95
-4 208 -7 l205 -6 5 -667 5 -666 24 -26 24 -26 317 0 317 0 26 25 c29 30 36
58 25 102 -16 63 -35 68 -300 71 l-238 3 0 595 0 594 736 0 c507 0 742 3 755
11 12 6 82 104 156 217 75 114 140 211 145 217 4 5 8 -361 8 -813 l0 -822
-229 0 c-126 0 -242 -3 -260 -6 -79 -16 -110 -113 -53 -167 l28 -27 1330 0
1331 0 24 26 24 26 5 666 5 667 205 6 c113 3 206 6 208 7 14 11 42 73 42 93 0
30 -451 727 -496 767 l-25 22 -2039 0 -2039 0 -25 -22z m1868 -190 c-5 -7 -77
-118 -161 -245 l-153 -233 -880 0 c-702 0 -880 3 -874 13 4 6 76 117 160 245
l153 232 881 0 c702 0 880 -3 874 -12z m2300 -220 c84 -128 156 -239 160 -245
6 -10 -172 -13 -874 -13 l-881 0 -152 233 c-84 127 -156 238 -161 245 -6 9
172 12 874 12 l881 0 153 -232z m-1856 -225 c77 -116 150 -216 161 -222 13 -8
249 -11 755 -11 l736 0 0 -595 0 -595 -900 0 -900 0 0 822 c0 452 2 819 4 817
2 -2 67 -99 144 -216z"/>
<path d="M3599 1051 c-51 -51 -33 -137 33 -160 41 -15 485 -15 526 0 66 23 84
109 33 160 l-29 29 -267 0 -267 0 -29 -29z"/>
<path d="M1523 643 c-35 -7 -73 -59 -73 -100 0 -80 109 -125 165 -69 72 72 9
188 -92 169z"/>
</g>
</svg>
