<svg width="24" height="24" viewBox="0 0 24 24">
<path d="M12.5 21.0001C11.9 21.0001 11.3 20.8001 10.7 20.4001L9.20004 19.3001L7.40005 19.1001C6.10005 18.9001 5.10005 17.9001 4.90005 16.6001L4.70004 14.8001L3.6 13.3001C2.8 12.3001 2.8 10.8001 3.6 9.80007L4.70004 8.30007L4.90005 6.50009C5.10005 5.20009 6.10005 4.20009 7.40005 4.00009L9.20004 3.80007L10.7 2.7001C11.7 1.9001 13.2 1.9001 14.2 2.7001L15.7 3.80007L17.5 4.00009C18.8 4.20009 19.8 5.20009 20 6.50009L20.2 8.30007L21.3 9.80007C22.1 10.8001 22.1 12.3001 21.3 13.3001L20.2 14.8001L20 16.6001C19.8 17.9001 18.8 18.9001 17.5 19.1001L15.7 19.3001L14.2 20.4001C13.7 20.8001 13.1 21.0001 12.5 21.0001ZM12.5 3.00009C12.1 3.00009 11.7 3.10011 11.3 3.40011L9.70004 4.60006C9.60004 4.70006 9.50002 4.7001 9.50002 4.7001L7.6 5.00009C6.7 5.10009 6.10002 5.80006 6.00002 6.60006L5.70004 8.60006C5.70004 8.70006 5.7 8.80007 5.6 8.80007L4.40005 10.4001C3.90005 11.1001 3.90005 12 4.40005 12.7L5.6 14.3001C5.7 14.4001 5.70004 14.5001 5.70004 14.5001L6.00002 16.4001C6.10002 17.3001 6.8 17.9001 7.6 18.0001L9.6 18.3001C9.7 18.3001 9.80001 18.3001 9.80001 18.4001L11.4 19.6001C12.1 20.1001 13 20.1001 13.7 19.6001L15.3 18.4001C15.4 18.3001 15.5 18.3001 15.5 18.3001L17.4 18.0001C18.3 17.9001 18.9 17.2001 19 16.4001L19.3 14.4001C19.3 14.3001 19.3 14.2 19.4 14.2L20.6 12.6001C21.1 11.9001 21.1 11.0001 20.6 10.3001L19.4 8.7001C19.3 8.6001 19.3 8.50009 19.3 8.50009L19 6.50009C18.9 5.60009 18.2 5.00011 17.4 4.90011L15.4 4.60006C15.3 4.60006 15.2 4.60009 15.2 4.50009L13.6 3.30007C13.3 3.10007 12.9 3.00009 12.5 3.00009Z" />
<path d="M14.1004 15.5001C13.9004 15.5001 13.7004 15.5001 13.5004 15.4001L12.7004 15.0001C12.6004 15.0001 12.5004 15.0001 12.4004 15.0001L11.6004 15.4001C11.2004 15.6001 10.7004 15.6002 10.2004 15.3002L9.90042 15.1001C9.50042 14.8001 9.30042 14.3002 9.40042 13.8002L9.60037 12.9001C9.60037 12.8001 9.60039 12.7001 9.50039 12.6001L8.80038 12.0001C8.40038 11.7001 8.30039 11.1001 8.50039 10.7001L8.60037 10.3001C8.70037 9.80011 9.10037 9.50015 9.60037 9.40015L10.5004 9.30011C10.6004 9.30011 10.7004 9.2001 10.7004 9.1001L11.1004 8.30011C11.3004 7.90011 11.8004 7.6001 12.3004 7.6001H12.7004C13.2004 7.6001 13.6004 7.90011 13.9004 8.30011L14.3004 9.1001C14.3004 9.2001 14.4004 9.30011 14.5004 9.30011L15.4004 9.40015C15.9004 9.50015 16.3004 9.80011 16.4004 10.3001L16.5004 10.7001C16.7004 11.2001 16.5004 11.7001 16.2004 12.0001L15.5004 12.7001C15.4004 12.8001 15.4004 12.9001 15.4004 13.0001L15.6004 13.9001C15.7004 14.4001 15.5004 14.9001 15.1004 15.2001L14.8004 15.4001C14.6004 15.4001 14.3004 15.5001 14.1004 15.5001ZM12.5004 13.9001C12.7004 13.9001 12.9004 13.9001 13.1004 14.0001L13.9004 14.4001C14.0004 14.4001 14.1004 14.4001 14.2004 14.4001L14.5004 14.2001C14.6004 14.1001 14.6004 14.0001 14.6004 13.9001L14.4004 13.0001C14.3004 12.6001 14.5004 12.1001 14.8004 11.9001L15.5004 11.3002C15.6004 11.2002 15.6004 11.1001 15.6004 11.0001L15.5004 10.6001C15.5004 10.5001 15.4004 10.4001 15.3004 10.4001L14.4004 10.3001C14.0004 10.2001 13.6004 10.0001 13.4004 9.6001L13.0004 8.80011C13.0004 8.70011 12.8004 8.6001 12.7004 8.6001H12.3004C12.2004 8.6001 12.1004 8.70011 12.0004 8.80011L11.6004 9.6001C11.4004 10.0001 11.1004 10.2001 10.6004 10.3001L9.70041 10.4001C9.60041 10.4001 9.50039 10.5001 9.50039 10.6001L9.40042 11.0001C9.40042 11.1001 9.40039 11.2002 9.50039 11.3002L10.2004 11.9001C10.5004 12.2001 10.6004 12.6001 10.6004 13.1001L10.4004 14.0001C10.4004 14.1001 10.4004 14.2002 10.5004 14.3002L10.8004 14.5001C10.9004 14.6001 11.0004 14.6001 11.1004 14.5001L11.9004 14.1001C12.1004 13.9001 12.3004 13.9001 12.5004 13.9001Z"/>
</svg>
