<svg width="24" height="24" viewBox="0 0 24 24" fill="none"
 viewBox="0 0 512.000000 512.000000">
<g transform="translate(0.000000,128.000000) scale(0.100000,-0.100000)"
fill="#000000" stroke="none">
<path d="M617 1218 c-9 -13 -23 -41 -34 -63 -18 -41 -31 -46 -155 -64 -19 -3
-4 -29 42 -76 48 -49 49 -51 40 -90 -13 -53 -12 -105 0 -105 6 0 37 14 70 30
l60 30 60 -30 c33 -16 64 -30 70 -30 14 0 13 67 -2 76 -7 4 -16 0 -22 -9 -9
-14 -15 -13 -57 11 l-47 26 -53 -28 -52 -29 7 39 c4 22 9 47 12 57 4 13 -7 30
-35 56 -44 40 -44 51 0 51 48 0 74 16 94 59 10 23 21 41 25 41 4 0 15 -18 25
-41 20 -43 46 -59 95 -59 43 0 45 -15 6 -45 -41 -31 -50 -50 -36 -76 13 -24
30 -25 30 -1 0 10 23 40 50 67 72 71 70 75 -45 93 -49 7 -51 9 -80 67 -34 67
-48 76 -68 43z"/>
<path d="M982 1175 c-26 -26 -28 -45 -7 -45 8 0 15 -7 15 -15 0 -8 7 -15 15
-15 8 0 15 7 15 15 0 8 7 15 15 15 22 0 18 22 -8 47 l-23 21 -22 -23z"/>
<path d="M198 1079 c-23 -25 -23 -34 3 -60 l20 -20 26 25 25 26 -23 25 c-28
29 -29 29 -51 4z"/>
<path d="M1071 1037 c-26 -29 -26 -32 -1 -57 24 -24 40 -26 40 -5 0 8 7 15 15
15 22 0 18 22 -9 47 l-23 22 -22 -22z"/>
<path d="M213 918 c-6 -7 -22 -36 -37 -65 -27 -55 -32 -58 -113 -68 -29 -4
-56 -11 -59 -17 -4 -5 17 -34 45 -62 l52 -53 -12 -67 c-15 -91 -7 -97 70 -55
l61 33 66 -32 c37 -18 71 -29 75 -25 5 5 3 39 -3 76 l-11 68 46 47 c56 57 60
78 15 85 -41 6 -68 -11 -44 -28 13 -10 11 -16 -20 -46 -35 -33 -36 -35 -29
-91 3 -32 4 -58 1 -58 -3 0 -20 9 -38 20 -41 25 -59 25 -108 0 -22 -11 -41
-20 -43 -20 -2 0 0 23 5 51 l9 52 -42 43 -41 42 56 7 c56 7 57 8 83 58 l25 51
25 -47 c26 -51 47 -67 66 -48 9 10 8 15 -4 24 -9 7 -27 36 -39 64 -26 62 -43
79 -57 61z"/>
<path d="M1030 898 c-11 -18 -25 -47 -30 -65 -12 -33 -21 -37 -107 -49 -67 -8
-68 -23 -6 -86 l46 -47 -11 -68 c-6 -37 -8 -71 -3 -76 4 -4 38 7 75 25 l67 33
61 -33 c76 -43 84 -36 69 54 l-12 67 52 53 c28 28 49 57 45 62 -3 6 -30 13
-59 17 -81 10 -86 13 -117 75 -16 32 -34 61 -40 65 -5 3 -19 -9 -30 -27z m54
-87 c25 -48 26 -49 82 -56 l56 -7 -41 -42 -42 -43 9 -52 c5 -28 7 -51 5 -51
-2 0 -21 9 -43 20 -49 25 -67 25 -105 0 -16 -11 -34 -20 -38 -20 -4 0 -5 26
-2 58 7 56 6 58 -30 92 l-36 35 53 10 c49 10 55 13 78 58 14 26 26 47 27 47 2
0 14 -22 27 -49z"/>
<path d="M103 436 c-27 -28 -29 -36 -8 -36 8 0 15 -7 15 -15 0 -8 9 -15 20
-15 11 0 20 7 20 15 0 8 7 15 15 15 21 0 18 11 -9 38 -29 27 -26 27 -53 -2z"/>
<path d="M348 398 l-33 -63 -65 -11 c-36 -7 -68 -12 -72 -13 -19 -3 -4 -29 41
-76 l49 -50 -11 -68 c-6 -37 -7 -70 -3 -74 4 -4 36 7 71 25 l65 32 65 -32 c35
-18 68 -29 72 -25 3 4 2 39 -3 77 l-10 70 48 47 c69 68 66 76 -35 88 l-57 7
-33 61 c-17 33 -37 62 -44 64 -6 2 -26 -24 -45 -59z m67 -49 c20 -43 46 -59
95 -59 43 0 44 -14 1 -53 -37 -34 -38 -37 -30 -79 13 -70 13 -70 -40 -41 l-49
27 -51 -28 -52 -28 6 39 c4 21 9 46 12 56 3 12 -9 31 -35 57 -43 43 -43 50 -1
50 48 0 74 16 94 59 10 23 21 41 25 41 4 0 15 -18 25 -41z"/>
<path d="M866 438 c-22 -32 -20 -48 7 -48 18 0 28 -10 42 -41 20 -43 46 -59
94 -59 43 0 43 -9 -1 -50 -27 -26 -38 -45 -35 -57 3 -10 8 -35 12 -56 l6 -39
-50 28 -49 28 -51 -28 c-55 -30 -56 -29 -42 43 9 43 8 45 -30 79 -43 38 -42
52 1 52 45 0 80 17 80 39 0 26 -15 34 -29 17 -7 -8 -35 -17 -64 -21 -105 -13
-108 -20 -39 -88 l48 -47 -10 -70 c-5 -38 -6 -73 -3 -77 4 -4 37 7 72 25 l65
32 65 -32 c35 -18 67 -29 71 -25 4 4 3 37 -3 74 l-11 68 49 50 c45 47 60 73
42 76 -5 1 -37 6 -73 13 l-65 11 -32 60 c-17 33 -36 61 -41 63 -6 2 -17 -7
-26 -20z"/>
<path d="M71 275 l-23 -25 26 -27 26 -26 26 26 26 27 -23 25 c-13 13 -26 25
-29 25 -3 0 -16 -12 -29 -25z"/>
<path d="M1160 215 c0 -8 -7 -15 -15 -15 -8 0 -15 -9 -15 -20 0 -11 6 -20 14
-20 8 0 17 -7 20 -16 5 -14 10 -13 31 8 27 26 33 48 11 48 -8 0 -16 7 -20 15
-3 8 -10 15 -16 15 -5 0 -10 -7 -10 -15z"/>
</g>
</svg>
