<svg width="24" height="24" viewBox="0 0 24 24" fill="none"
 viewBox="0 0 512.000000 512.000000">

<g transform="translate(0.000000,512.000000) scale(0.100000,-0.100000)"
fill="#000000" stroke="none">
<path d="M2278 4212 c-257 -257 -298 -301 -298 -327 0 -26 62 -92 487 -517
l488 -488 -142 -143 c-84 -84 -149 -158 -158 -180 -45 -107 9 -236 119 -282
57 -24 1299 -65 1354 -45 57 20 99 57 123 107 27 55 27 74 0 843 -17 481 -19
518 -38 555 -40 76 -104 115 -193 115 -82 0 -114 -21 -265 -170 l-140 -140
-485 485 c-454 454 -487 485 -520 485 -32 0 -56 -21 -332 -298z m822 -357
c418 -418 490 -485 515 -485 24 0 57 28 201 172 149 148 177 171 204 171 57 0
75 -30 78 -136 30 -875 37 -1156 31 -1175 -17 -46 -20 -46 -680 -24 -616 21
-622 21 -645 43 -15 14 -24 34 -24 52 0 26 26 57 170 202 142 143 170 177 170
201 0 25 -68 97 -487 516 l-488 488 230 230 c126 126 232 230 235 230 3 0 223
-218 490 -485z"/>
<path d="M950 2868 c-40 -25 -60 -45 -79 -81 -29 -57 -29 -28 -6 -742 18 -594
20 -616 44 -662 38 -74 103 -113 191 -113 82 0 114 21 265 170 l140 140 485
-485 c454 -454 487 -485 520 -485 32 0 56 21 332 298 257 257 298 301 298 327
0 26 -62 92 -487 517 l-487 487 145 148 c153 156 169 182 169 269 0 49 -29
111 -66 146 -62 57 -60 57 -677 78 -770 26 -721 27 -787 -12z m780 -128 c311
-11 566 -20 567 -20 14 -2 43 -51 43 -73 0 -26 -27 -57 -170 -202 -142 -143
-170 -177 -170 -201 0 -25 68 -97 487 -516 l488 -488 -232 -232 -233 -233
-488 488 c-420 419 -492 487 -517 487 -24 0 -57 -28 -200 -171 -149 -147 -176
-170 -204 -171 -48 -2 -74 29 -78 94 -3 47 -29 883 -36 1126 -2 88 -1 95 22
113 29 24 8 24 721 -1z"/>
</g>
</svg>
