<svg width="24" height="24" viewBox="0 0 24 24" fill="none" xmlns="http://www.w3.org/2000/svg">
<path fill-rule="evenodd" clip-rule="evenodd" d="M17.5 6.5C17.5 6.2 17.7 6 18 6H19C19.3 6 19.5 6.2 19.5 6.5C19.5 6.8 19.3 7 19 7H18C17.7 7 17.5 6.8 17.5 6.5Z" fill="#30354E"/>
<path fill-rule="evenodd" clip-rule="evenodd" d="M9 10C9.3 10 9.5 10.2 9.5 10.5V16.6C9.5 16.9 9.3 17.1 9 17.1C8.7 17.1 8.5 16.9 8.5 16.6V10.5C8.5 10.2 8.7 10 9 10Z" fill="#30354E"/>
<path fill-rule="evenodd" clip-rule="evenodd" d="M12 8.80005C12.3 8.80005 12.5 9.00005 12.5 9.30005V17.6C12.5 17.9 12.3 18.1 12 18.1C11.7 18.1 11.5 17.9 11.5 17.6V9.30005C11.5 9.00005 11.7 8.80005 12 8.80005Z" fill="#30354E"/>
<path fill-rule="evenodd" clip-rule="evenodd" d="M15 10C15.3 10 15.5 10.2 15.5 10.5V16.6C15.5 16.9 15.3 17.1 15 17.1C14.7 17.1 14.5 16.9 14.5 16.6V10.5C14.5 10.2 14.7 10 15 10Z" fill="#30354E"/>
<path fill-rule="evenodd" clip-rule="evenodd" d="M5.5 6.5C5.5 6.2 5.7 6 6 6H18C18.3 6 18.5 6.2 18.5 6.5V18.2C18.5 19.7 17.3 20.9 15.8 20.9H8.2C6.7 20.9 5.5 19.7 5.5 18.2V6.5ZM6.5 7V18.2C6.5 19.1 7.3 19.9 8.2 19.9H15.8C16.7 19.9 17.5 19.1 17.5 18.2V7H6.5Z" fill="#30354E"/>
<path fill-rule="evenodd" clip-rule="evenodd" d="M8.3 4.1001C8.5 3.5001 9.09999 3.1001 9.69999 3.1001H14.3C15 3.1001 15.5 3.5001 15.7 4.1001L16.4 6.40015C16.5 6.70015 16.3 6.90012 16.1 7.00012C15.8 7.10012 15.6 6.90013 15.5 6.70013L14.8 4.40015C14.7 4.20015 14.5 4.1001 14.3 4.1001H9.69999C9.49999 4.1001 9.29999 4.20015 9.19999 4.40015L8.5 6.70013C8.4 7.00013 8.09999 7.10012 7.89999 7.00012C7.59999 6.90012 7.5 6.60015 7.6 6.40015L8.3 4.1001Z" fill="#30354E"/>
<path fill-rule="evenodd" clip-rule="evenodd" d="M4.5 6.5C4.5 6.2 4.7 6 5 6H6C6.3 6 6.5 6.2 6.5 6.5C6.5 6.8 6.3 7 6 7H5C4.7 7 4.5 6.8 4.5 6.5Z" fill="#30354E"/>
</svg>
