<svg width="24" height="26" viewBox="0 0 24 26" fill="none" xmlns="http://www.w3.org/2000/svg">
<path fill-rule="evenodd" clip-rule="evenodd" d="M8.09961 4.29987C8.09961 2.39987 9.5996 0.899902 11.4996 0.899902C13.3996 0.899902 14.8996 2.39987 14.8996 4.29987C14.8996 6.19987 13.3996 7.69989 11.4996 7.69989C9.5996 7.69989 8.09961 6.19987 8.09961 4.29987ZM11.4996 1.8999C10.1996 1.8999 9.09961 2.99987 9.09961 4.29987C9.09961 5.59987 10.1996 6.69989 11.4996 6.69989C12.7996 6.69989 13.8996 5.59987 13.8996 4.29987C13.8996 2.99987 12.7996 1.8999 11.4996 1.8999Z" fill="#30354E"/>
<path fill-rule="evenodd" clip-rule="evenodd" d="M6.5 11.6999C6.5 10.6999 7.29999 9.8999 8.29999 9.8999H14.7C15.7 9.8999 16.5 10.6999 16.5 11.6999V16.1999C16.5 16.7999 16.2 17.3999 15.7 17.6999L14.6 18.4999V23.3999C14.6 24.3999 13.8 25.1999 12.8 25.1999H10.2C9.20001 25.1999 8.39999 24.3999 8.39999 23.3999V18.4999L7.29999 17.6999C6.79999 17.3999 6.5 16.7999 6.5 16.1999V11.6999ZM8.29999 10.8999C7.89999 10.8999 7.5 11.2999 7.5 11.6999V16.1999C7.5 16.4999 7.59999 16.6999 7.79999 16.8999L9.20001 17.7999C9.30001 17.8999 9.39999 17.9999 9.39999 18.1999V23.2999C9.39999 23.6999 9.80001 24.0999 10.2 24.0999H12.8C13.2 24.0999 13.6 23.6999 13.6 23.2999V18.1999C13.6 17.9999 13.7 17.8999 13.8 17.7999L15.2 16.8999C15.4 16.7999 15.5 16.4999 15.5 16.1999V11.6999C15.5 11.2999 15.1 10.8999 14.7 10.8999H8.29999Z" fill="#30354E"/>
</svg>
