<svg width="24" height="24" viewBox="0 0 24 24" fill="none" xmlns="http://www.w3.org/2000/svg">
<path d="M12.0008 19.5C8.10077 19.5 4.50078 16.1 2.70078 12.7C2.50078 12.3 2.50078 11.7 2.70078 11.3C4.50078 7.89999 8.10077 4.5 12.0008 4.5C15.9008 4.5 19.5008 7.89999 21.3008 11.3C21.5008 11.7 21.5008 12.3 21.3008 12.7C19.5008 16.1 15.9008 19.5 12.0008 19.5ZM3.60074 12.2C5.30074 15.3 8.60077 18.5 12.0008 18.5C15.4008 18.5 18.8008 15.4 20.4008 12.2C20.5008 12.1 20.5008 11.9 20.4008 11.7C18.7008 8.60001 15.4008 5.39999 12.0008 5.39999C8.60077 5.39999 5.20074 8.50001 3.60074 11.7C3.50074 11.9 3.50074 12.1 3.60074 12.2Z" fill="#30354E"/>
<path d="M12 15.4999C11.1 15.4999 10.2 15.0999 9.5 14.4999C8.8 13.7999 8.5 12.9999 8.5 11.9999C8.5 11.0999 8.9 10.1999 9.5 9.4999C10.8 8.1999 13.1 8.1999 14.4 9.4999C15.1 10.1999 15.4 10.9999 15.4 11.9999C15.4 12.8999 15 13.7999 14.4 14.4999C13.8 15.0999 12.9 15.4999 12 15.4999ZM12 9.4999C11.3 9.4999 10.7 9.79991 10.2 10.1999C9.70001 10.6999 9.5 11.2999 9.5 11.9999C9.5 12.6999 9.80001 13.2999 10.2 13.7999C11.1 14.6999 12.8 14.6999 13.7 13.7999C14.2 13.2999 14.4 12.6999 14.4 11.9999C14.4 11.2999 14.1 10.6999 13.7 10.1999C13.3 9.79991 12.7 9.4999 12 9.4999Z" fill="#30354E"/>
</svg>
