<svg xmlns="http://www.w3.org/2000/svg" viewBox="0 0 30 30">
  <g id="Wallets" transform="translate(-236 -188)">
    <g id="empty-wallet" transform="translate(236 188)">
      <path id="Vector" d="M0,0H30V30H0Z" fill="none" opacity="0"/>
      <path id="Vector-2" data-name="Vector" d="M15.438,2.375v4.75H13.563V2.375a.5.5,0,0,0-.687-.463L2.963,5.65A1.679,1.679,0,0,0,1.875,7.238v.838A4.67,4.67,0,0,0,0,11.825V7.238A3.56,3.56,0,0,1,2.3,3.9L12.225.15A2.469,2.469,0,0,1,13.063,0,2.382,2.382,0,0,1,15.438,2.375Z" transform="translate(3.125 2.563)"/>
      <path id="Vector-3" data-name="Vector" d="M3.756.625v1.25a.624.624,0,0,1-.612.625H1.318A1.294,1.294,0,0,1,.006,1.363a1.248,1.248,0,0,1,.363-1A1.188,1.188,0,0,1,1.243,0H3.131A.627.627,0,0,1,3.756.625Z" transform="translate(23.119 17.5)"/>
      <path id="Vector-4" data-name="Vector" d="M21.225,6.5H22.5a1.254,1.254,0,0,0,1.25-1.25V4.7A4.711,4.711,0,0,0,19.05,0H4.7A4.633,4.633,0,0,0,1.875.95,4.67,4.67,0,0,0,0,4.7v8.412a4.711,4.711,0,0,0,4.7,4.7H19.05a4.711,4.711,0,0,0,4.7-4.7v-.238a1.254,1.254,0,0,0-1.25-1.25H21.413a2.714,2.714,0,0,1-2.663-1.9A2.575,2.575,0,0,1,21.225,6.5Zm-6.85-.25H5.625a.938.938,0,1,1,0-1.875h8.75a.938.938,0,0,1,0,1.875Z" transform="translate(3.125 9.688)"/>
    </g>
  </g>
</svg>
